<svg xmlns="http://www.w3.org/2000/svg" xmlns:xlink="http://www.w3.org/1999/xlink" xml:space="preserve" id="Layer_1" x="0" y="0" style="enable-background:new 0 0 426 92" version="1.1" viewBox="0 0 426 92"><style>.st0{fill:#fff}.st1{fill:#00a0af}.st3{fill:none}.st4{fill:#e36f1e}.st5{fill:#004fa3}.st7{fill:#add223}.st8{fill:#7b4497}.st11{fill:#038ed0}.st12{fill:#bf48b0}.st13{fill:#013b7a}.st16{fill:#f9e6ff}</style><path d="M412.3 43.5c0 13.3-10.8 24.1-24.1 24.1s-24.1-10.8-24.1-24.1 10.8-24.1 24.1-24.1c13.3.1 24.1 10.9 24.1 24.1" class="st0"/><path d="M388.2 68.2c-6.6 0-12.8-2.6-17.4-7.2-4.7-4.7-7.2-10.8-7.2-17.4s2.6-12.8 7.2-17.4c4.7-4.7 10.8-7.2 17.4-7.2s12.8 2.6 17.4 7.2c4.7 4.7 7.2 10.8 7.2 17.4s-2.6 12.8-7.2 17.4-10.8 7.2-17.4 7.2zm0-48.1c-12.9 0-23.5 10.5-23.5 23.5 0 12.9 10.5 23.5 23.5 23.5 12.9 0 23.5-10.5 23.5-23.5s-10.5-23.5-23.5-23.5z" class="st1"/><path d="M372.3 57.2c0-.2.1-.5.3-.6.2-.2.4-.3.6-.2.2 0 .5.1.6.3s.3.4.2.6c0 .2-.1.5-.3.6-.2.2-.4.3-.6.2-.2 0-.5-.1-.6-.3-.1-.1-.2-.3-.2-.6zM374.8 61.1l2.1-2.9.6.5-2.1 2.9-.6-.5zM380 60.5l-.8.3c0-.1-.1-.2-.1-.3l-.2-.2c-.1-.1-.2-.1-.4-.1-.1 0-.2.1-.3.2 0 .1-.1.2 0 .2 0 .1.1.2.1.2.1.1.1.2.2.2.1.1.2.2.2.3.1.1.1.2.2.3 0 .1.1.2.1.4 0 .1-.1.3-.1.4-.2.3-.4.5-.8.6-.3 0-.7 0-1-.2-.4-.2-.7-.6-.8-1l.8-.3c0 .1.1.3.1.4l.3.3c.1.1.2.1.4.1.1 0 .2-.1.3-.2 0-.1.1-.2 0-.3 0-.1-.1-.2-.2-.3l-.3-.3c-.1-.1-.2-.2-.3-.4-.1-.1-.1-.3-.1-.4 0-.2 0-.3.1-.5.2-.3.4-.5.8-.5.3 0 .7 0 1 .2.4.2.7.5.8.9zM380 63.6c-.2-.4-.3-.9-.1-1.5.2-.5.5-.9.9-1.1.5-.2.9-.2 1.5 0 .5.2.9.5 1.2.9.2.4.3.9.1 1.5-.2.5-.5.9-.9 1.1-.5.2-.9.2-1.5 0-.6-.1-1-.5-1.2-.9zm1.2-1.9c-.3.1-.4.4-.6.7-.1.3-.1.6 0 .9.1.3.3.5.7.6.3.1.6.1.9-.1.3-.1.4-.4.6-.7.1-.3.1-.6 0-.9-.1-.3-.3-.5-.7-.6-.3-.1-.6 0-.9.1zM385.9 65.5v-.8l1.4-1.2c.1-.1.1-.1.2-.1l.1-.1c0-.1.1-.1.1-.2s0-.2-.1-.3-.2-.1-.3-.1c-.1 0-.2 0-.3.1-.1.1-.1.2-.2.3l-.8-.1c0-.4.2-.6.4-.8.2-.2.5-.3.9-.2.3 0 .6.1.8.3.2.2.3.5.3.8 0 .2-.1.4-.1.5-.1.1-.2.3-.4.4l-1.1.9 1.6.1v.7l-2.5-.2zM389.7 65.6l1.1-3-1.8.2V62l2.6-.3.1.7-1.1 3-.9.2zM392.6 63.9c-.1-.2-.1-.3-.2-.5 0-.2-.1-.3-.1-.5v-.5c0-.2.1-.3.1-.5.1-.1.2-.3.3-.4.1-.1.3-.2.5-.3s.4-.1.6 0c.2 0 .3.1.4.2l.3.3c.1.1.2.3.3.4.1.2.1.3.2.5 0 .2.1.3.1.5v.5c0 .2-.1.3-.1.5-.1.1-.2.3-.3.4-.1.1-.3.2-.5.3-.2.1-.4.1-.6 0-.2 0-.3-.1-.4-.2l-.3-.3c-.1-.1-.2-.2-.3-.4zm.8-1.9c-.4.1-.4.5-.2 1.3.2.7.5 1.1.9 1s.4-.5.2-1.3-.5-1.1-.9-1zM395.8 63c-.1-.1-.2-.3-.2-.5-.1-.2-.1-.3-.2-.5 0-.2-.1-.3-.1-.5V61c0-.1.1-.3.2-.4.1-.1.3-.2.4-.3.2-.1.4-.1.5-.1.2 0 .3 0 .5.1.1.1.3.2.4.3s.2.3.3.4c.1.1.2.3.2.5.1.2.1.3.2.5 0 .2.1.3.1.5v.5c0 .1-.1.3-.2.4-.1.1-.3.2-.4.3-.2.1-.4.1-.5.1-.2 0-.3 0-.5-.1-.1-.1-.3-.2-.4-.3-.1-.2-.2-.3-.3-.4zm.5-2.1c-.3.2-.4.6 0 1.3.3.7.7 1 1 .8s.4-.6 0-1.3c-.3-.7-.6-1-1-.8zM400.6 61.9l-1.5-2.3-.2.9-.6-.2.4-1.5.6-.4 2 3-.7.5zM403.3 58.2c-.2 0-.5-.1-.6-.2-.2-.2-.3-.4-.3-.6 0-.2.1-.5.2-.6.2-.2.4-.3.6-.3s.5.1.6.2c.2.2.3.4.3.6 0 .2-.1.5-.2.6-.2.2-.4.3-.6.3zM368.5 50.8l.6.3c-.1.2-.1.4 0 .7s.3.4.6.5c.3.1.5.1.8-.1.3-.1.5-.3.6-.6.1-.2.1-.5 0-.7-.1-.3-.3-.4-.6-.5l.2-.7c.2 0 .4.1.6.3s.3.3.4.6c.2.5.2.9.1 1.4-.2.4-.5.8-.9 1-.5.2-.9.2-1.4.1s-.7-.5-1-1c-.1-.2-.1-.4-.1-.6-.1-.4 0-.6.1-.7zM370.5 49c-.2.4-.6.7-1.1.8s-1 .1-1.3-.2c-.4-.3-.6-.6-.8-1.1-.1-.5-.1-1 .2-1.4.2-.4.6-.7 1.1-.8s1-.1 1.3.2c.4.3.6.6.8 1.1.1.5.1 1-.2 1.4zm-2.1-.1c.2.1.5.2.8.1.3-.1.5-.2.7-.4s.2-.5.1-.8-.2-.5-.5-.7c-.2-.1-.5-.2-.8-.1-.3.1-.5.2-.7.4s-.2.5-.1.8c.2.4.3.6.5.7zM370.2 45.5h-3.3v-1.1l2.2-.8-2.2-.8v-1.1h3.3v.7h-2.5l2.5.9v.6l-2.5.8h2.5v.8zM370.3 41.2l-3.2-.6.2-1.2c.2-.8.6-1.2 1.2-1 .7.1.9.6.8 1.4l-.1.5 1.3.2-.2.7zm-2.5-1.2.8.2.1-.5c.1-.3 0-.5-.3-.6-.3 0-.4.1-.5.5l-.1.4zM370.6 39.1l-2.6-2.5.2-.6 3.6-.2-.3.8h-.8l-.4 1.2.6.5-.3.8zm-.5-2.4H369l.8.7.3-.7zM370.4 32.3l.2.7c-.1 0-.2.1-.3.1l-.2.2c-.1.1-.1.2-.1.3s0 .2.1.3h.2c.1 0 .1-.1.2-.1s.1-.1.2-.2.2-.2.3-.2c.1-.1.2-.1.3-.2.1 0 .2-.1.3-.1.1 0 .3 0 .4.1.3.2.5.4.5.7s0 .6-.2.9c-.2.4-.5.6-.9.8l-.2-.7c.1 0 .2-.1.3-.1.1-.1.2-.2.2-.3.1-.1.1-.2.1-.3s-.1-.2-.1-.3c-.1 0-.2-.1-.3 0-.1 0-.2.1-.3.2l-.3.3c-.1.1-.2.2-.3.2-.1.1-.2.1-.4.1-.1 0-.3 0-.4-.1-.3-.2-.5-.4-.5-.7s0-.6.2-.9c.4-.4.6-.6 1-.7zM372.2 29.8l.1.7c-.1 0-.2 0-.3.1-.1.1-.2.1-.2.2-.1.1-.1.2-.1.3 0 .1 0 .2.1.3.1 0 .1.1.2.1s.2 0 .2-.1c.1-.1.2-.1.3-.2.1-.1.2-.1.3-.2.1-.1.2-.1.3-.1h.3c.1 0 .2.1.4.2.3.2.4.5.4.8s-.1.6-.3.9c-.3.4-.6.6-1 .6l-.1-.8c.1 0 .2 0 .4-.1.1-.1.2-.1.3-.2.1-.1.1-.2.1-.3 0-.1 0-.2-.1-.3-.1-.1-.2-.1-.3-.1-.1 0-.2.1-.3.1-.1.1-.2.1-.3.2-.1.1-.2.1-.4.2-.1.1-.2.1-.4.1-.1 0-.3-.1-.4-.2-.3-.2-.4-.5-.4-.8s.1-.6.3-.9c.2-.3.5-.4.9-.5zM375.6 30.5l-.9-3.5.5-.4 3.2 1.7-.6.5-.7-.4-1 .8.2.7-.7.6zm.9-2.4-1-.5.3 1.1.7-.6zM379 24.5l-.2.7h-.3c-.1 0-.2 0-.3.1-.1.1-.2.1-.3.2-.1.1-.1.2 0 .3 0 .1.1.1.2.1h.3c.1 0 .2 0 .3-.1.1 0 .2 0 .3-.1h.3c.1 0 .2.1.3.1s.2.2.3.3c.2.3.2.6.1.9s-.3.5-.7.7c-.4.2-.8.3-1.2.2l.2-.7c.1 0 .2.1.4.1.1 0 .2 0 .3-.1.1-.1.2-.1.3-.2.1-.1.1-.2 0-.3 0-.1-.1-.1-.2-.2h-.3c-.1 0-.2.1-.4.1h-.4c-.1 0-.3 0-.4-.1l-.3-.3c-.2-.3-.2-.6-.1-.9s.3-.5.6-.7c.5-.1.8-.2 1.2-.1zM381.8 23.4l-.3.7c-.1 0-.2-.1-.3-.1-.1 0-.2 0-.3.1-.1 0-.2.1-.3.2-.1.1-.1.2-.1.3 0 .1.1.1.2.2h1.1c.1 0 .2.1.3.2.1.1.2.2.2.3.1.3.1.6-.1.9s-.4.5-.8.6c-.4.2-.8.2-1.2 0l.3-.7c.1.1.2.1.3.1h.4c.1 0 .2-.1.3-.2.1-.1.1-.2.1-.3 0-.1-.1-.1-.2-.2h-1.1c-.1 0-.2-.1-.4-.2-.1-.1-.2-.2-.3-.4-.1-.3-.1-.6.1-.9s.4-.5.7-.6c.8-.1 1.1-.1 1.4 0zM385.5 22.3l.4 2c.1.4 0 .7-.2 1s-.5.5-.9.6-.8 0-1.1-.2c-.3-.2-.5-.5-.5-.9l-.4-2 .7-.1.4 2c0 .2.1.4.3.5.1.1.3.1.5.1s.3-.1.4-.3c.1-.2.1-.3.1-.5l-.4-2 .7-.2zM386.7 25.5l-.1-3.3h1.3c.8 0 1.3.3 1.3 1 0 .2-.1.4-.2.6s-.3.3-.5.3l.9 1.4h-.9l-.7-1.3h-.4v1.3h-.7zm.7-2.7v.8h.8c.1 0 .1-.1.2-.1 0-.1.1-.1 0-.2 0-.3-.2-.4-.6-.4l-.4-.1z" class="st1"/><path d="m389.3 25.4 1.9-3 .6.1.9 3.5-.8-.1-.2-.7-1.3-.2-.4.6-.7-.2zm2.3-1-.2-1.1-.6 1 .8.1zM393 26l1.1-3.1.9.3.5 2.6.8-2.2.7.2-1.1 3.1-.9-.3-.5-2.7-.8 2.2-.7-.1zM400.3 26.3l-.7.1c0-.2-.2-.4-.4-.6-.2-.1-.5-.2-.7-.1-.3.1-.5.3-.6.5-.2.3-.2.5-.2.8s.2.5.4.6c.3.2.5.2.8 0l.3.7c-.2.1-.4.1-.7.1-.2 0-.4-.1-.7-.2-.4-.3-.7-.6-.9-1.1-.1-.4-.1-.9.2-1.3.3-.4.6-.7 1.1-.8.4-.1.9 0 1.3.2.2.1.3.2.5.4.2.3.3.5.3.7zM399.2 29.1l2.1-2.5L403 28l-.4.5-1.2-1-.4.5 1.1.9-.4.5-1.1-.9-.4.5 1.2 1-.4.5-1.8-1.4zM405.9 31.9l-.7-.1v-.3c0-.1-.1-.2-.1-.3-.1-.1-.2-.2-.3-.2h-.3c-.1 0-.1.1-.1.2v.3c0 .1.1.2.1.3 0 .1.1.2.1.3v.3c0 .1 0 .2-.1.3l-.3.3c-.3.2-.6.3-.9.2s-.5-.3-.8-.6c-.3-.4-.4-.7-.3-1.1l.8.1v.4c0 .1.1.2.1.3.1.1.2.2.3.2h.3c.1-.1.1-.1.1-.2s0-.2-.1-.3c0-.1-.1-.2-.1-.4 0-.1-.1-.3-.1-.4v-.4c.1-.1.1-.3.3-.4.3-.2.6-.3.9-.2.3.1.6.3.8.5.4.5.5.8.4 1.2zM403.8 34.1l2.9-1.5 1 2-.6.3-.7-1.3-.5.3.7 1.3-.6.3-.7-1.3-.6.3.7 1.4-.6.3-1-2.1zM405 36.7l3.1-1.1.4 1.2c.3.8.1 1.3-.5 1.5-.2.1-.4.1-.6 0s-.3-.2-.5-.4l-1 1.2-.3-.8 1-1.1-.1-.3-1.2.4-.3-.6zm2.8-.2-.7.2.1.4c0 .1.1.1.1.2 0 0 .1.1.1.2s.1.1.2.1h.2c.2-.1.3-.3.2-.7l-.2-.4zM406.1 40.5l3.1-1.8.1.8-2 1.1 2.3.5.1.8-3.5-.8-.1-.6zM406.4 42.7l3.3-.1v.7l-3.3.1v-.7zM409 47.1l-.4-.6c.2-.1.3-.3.3-.6s0-.5-.2-.7-.4-.3-.7-.3c-.3 0-.6 0-.8.2-.2.2-.3.4-.4.6 0 .3.1.5.3.7l-.5.6c-.2-.2-.3-.3-.4-.6-.1-.2-.1-.4-.1-.7.1-.5.3-.9.6-1.2.3-.3.8-.4 1.3-.4.5.1.9.3 1.2.6.3.4.4.8.3 1.3 0 .2-.1.4-.2.6 0 .2-.1.4-.3.5zM406 47.2l3.2.9-.6 2.2-.6-.2.4-1.5-.6-.2-.4 1.4-.6-.2.4-1.4-.6-.2-.4 1.5-.6-.2.4-2.1zM407.1 53.2l-.3-.7c.1 0 .2-.1.2-.1.1-.1.1-.2.2-.2 0-.1.1-.2.1-.3s-.1-.2-.2-.2h-.2c-.1 0-.1.1-.2.1l-.2.2c-.1.1-.1.2-.2.3s-.2.2-.3.2c-.1.1-.2.1-.3.1-.1 0-.3 0-.4-.1-.3-.1-.5-.4-.6-.7s0-.6.1-.9c.2-.4.5-.7.8-.8l.3.7c-.1 0-.2.1-.3.2-.1.1-.2.2-.2.3-.1.1-.1.2-.1.4 0 .1.1.2.2.2h.3c.1 0 .2-.1.2-.2l.3-.3.3-.3c.1-.1.2-.1.4-.2.1 0 .3 0 .4.1.3.1.5.4.6.7s0 .6-.1.9c-.2.2-.4.4-.8.6zM404.4 43.5c0 8.9-7.2 16.2-16.2 16.2-8.9 0-16.2-7.2-16.2-16.2s7.2-16.2 16.2-16.2c9 .1 16.2 7.3 16.2 16.2" class="st1"/><path d="m387.9 30.4 10.4 21.5-10.4-3.5-10.4 3.6z" class="st0"/><path d="m388 34.2-.1 12.5-7.1 2.5z" class="st1"/><path d="M180.1 51.9V35.3h-2.6l-4.4 2.2 1 2.2 2.8-1.4v13.6h3.2zm9.4.3c3.9 0 6-1.8 6-4.7 0-2.3-1.3-3.5-2.9-4.3 1.1-.8 2.2-2.1 2.2-3.9 0-2.5-2-4.3-5.4-4.3s-5.4 1.7-5.4 4.4c0 1.8.9 3 2 3.8-1.4.8-2.6 2.2-2.6 4.3.1 2.9 2.2 4.7 6.1 4.7zm.8-9.9c-1.8-.6-3.3-1.1-3.3-2.8 0-1.4 1-2.1 2.5-2.1s2.5.7 2.5 2.1c0 1.3-.9 2.2-1.7 2.8zm-.8 7.5c-1.6 0-2.8-.8-2.8-2.4 0-1.4.9-2.3 1.8-2.9 1.9.7 3.8 1.1 3.8 3 0 1.4-1.1 2.3-2.8 2.3zm15.4.5v-4.1h4v-2.3h-4v-4.1h-2.4v4.1h-4v2.3h4v4.1h2.4z"/><path d="M190.1 18c14.1 0 25.6 11.4 25.6 25.6s-11.4 25.6-25.6 25.6c-14.1 0-25.6-11.4-25.6-25.6S176 18 190.1 18zm0 4.2c-11.8 0-21.3 9.5-21.3 21.3s9.5 21.3 21.3 21.3 21.3-9.5 21.3-21.3-9.5-21.3-21.3-21.3z" style="fill-rule:evenodd;clip-rule:evenodd;fill:#eb001b"/><path d="M24.6 61.7H24V64h.7c1.1 0 1.5-.4 1.5-1.1 0-.7-.3-1.2-1.6-1.2zM52.5 62.8c0-.7-.3-1.1-1.6-1.1h-.6V64h.7c1.1 0 1.5-.4 1.5-1.2zM33.7 53.6c0-.7-.3-1.2-1.7-1.2h-.7v2.4h.7c1.2 0 1.7-.3 1.7-1.2zM24.8 57.7c1.5 0 2.6-1.1 2.6-2.7 0-1.5-1.1-2.7-2.6-2.7s-2.7 1.1-2.7 2.7c0 1.5 1.2 2.7 2.7 2.7zM56.7 53.6c0-.7-.3-1.2-1.7-1.2h-.7v2.4h.7c1.2 0 1.7-.3 1.7-1.2zM44.3 61.6c-1.4 0-2.6 1.1-2.6 2.6 0 1.4 1.1 2.6 2.6 2.6 1.4 0 2.5-1.1 2.5-2.5 0-1.6-1.1-2.7-2.5-2.7zM32 62.8c0-.7-.3-1.1-1.6-1.1h-.6V64h.7c1 0 1.5-.4 1.5-1.2zM21.2 69.5c-1.1 0-2.1.9-2.1 2s.9 2.1 2.1 2.1c1.1 0 2-.9 2-2 0-1.2-.9-2.1-2-2.1z" class="st3"/><path d="M38.4 31.4c-2.2.3-5.9 1.1-6.5 3.3-.5 2.2 2.6 4.6 4.5 5.8 1.4.9 3.5.1 4.1-1.1.6-1.2 1.1-3.3 1.1-5.1 0-1.4-1.6-3.1-3.2-2.9zM15.3 29.7c2.1.7 5.8 1.7 7.2 0 1.4-1.8-.4-5.3-1.6-7.2-.8-1.4-3.2-1.6-4.2-.8s-2.3 2.5-3.2 4c-.5 1.2.3 3.5 1.8 4zM28.8 38.3c-2 1-1.9 4.9-1.7 7.2.2 1.6 2.2 2.9 3.4 2.6 1.3-.3 3.2-1.3 4.6-2.2 1.1-.8 1.3-3.2.2-4.3-1.5-1.7-4.4-4.2-6.5-3.3zM26.9 27.7c2.2-.1 3.8-3.6 4.5-5.8.5-1.5-.7-3.5-2-3.8s-3.5-.3-5.1 0c-1.3.2-2.5 2.3-2 3.8.8 2.2 2.3 5.8 4.6 5.8zM31 29.9c1.4 1.7 5.1.8 7.2.1 1.5-.5 2.2-2.8 1.7-4s-1.9-2.9-3.2-4.1c-1-.9-3.3-.6-4.2.8-1.1 2-2.8 5.4-1.5 7.2zM24.2 38.2c-2-.9-4.9 1.6-6.5 3.2-1.1 1.1-.8 3.5.2 4.3s3 1.8 4.6 2.3c1.2.4 3.3-.9 3.4-2.6.2-2.3.3-6.2-1.7-7.2zM21.3 34.3c-.5-2.2-4.3-3-6.5-3.3-1.6-.2-3.2 1.5-3.2 2.8s.5 3.5 1.1 5.1c.5 1.2 2.7 2 4.1 1.1 1.9-1.1 5-3.5 4.5-5.7z" class="st4"/><path d="M21.2 69c-1.4 0-2.6 1.1-2.6 2.5s1.1 2.5 2.6 2.5c1.4 0 2.6-1.1 2.6-2.5-.1-1.4-1.3-2.5-2.6-2.5zm0 4.6c-1.1 0-2.1-.9-2.1-2.1 0-1.1 1-2 2.1-2s2 .9 2 2.1c0 1.1-.9 2-2 2zM28.2 36.8c1.4-.7 3.6 1.1 4.4 1.5l.1.1c-.5-.8-2.8-2.4-2.4-4.1.4-1.6 3-2.1 3.9-2.6h.1c-1-.1-3.6.7-4.6-.7-1-1.3.2-3.8.4-4.7v-.2c-.7.8-1.7 3.3-3.4 3.3-1.6 0-2.7-2.6-3.3-3.3l-.1-.1c.2 1 1.5 3.4.4 4.8-1 1.3-3.6.6-4.6.6h-.2c.9.5 3.5.9 3.9 2.7.4 1.6-1.8 3.3-2.4 4.1l-.1.1c.9-.4 2.9-2.2 4.5-1.4 1.4.7 1.4 3.5 1.6 4.5v.2c.4-1.3.2-4.1 1.8-4.8zM14.8 72.2h2.7c-.2.8-1 1.4-2 1.4-1.2 0-2.1-.9-2.1-2s.9-2 2.1-2c.8 0 1.4.3 1.7.9h.5c-.3-.8-1.2-1.4-2.3-1.4-1.4 0-2.6 1.1-2.6 2.5s1.1 2.5 2.6 2.5c1.4 0 2.4-1.1 2.5-2.3h-3.3v.4h.2zM14.1 67.9h1.4v-6.2h1.4v-1.3h-4.2v1.3h1.4zM51.7 57.5H49v-1.8h2.6v-1.4H49v-1.9h2.7V51h-4.2v7.9h4.2zM54.4 55.9l2.1 3h1.8L56.1 56c1.4-.4 2-1.2 2-2.4 0-.8-.3-1.5-.8-2s-1.1-.6-2.2-.6h-2.3v7.9h1.5v-3h.1zm0-3.4h.6c1.4 0 1.7.5 1.7 1.2 0 .8-.5 1.2-1.6 1.2h-.7v-2.4zM24.9 59.1c2.3 0 4.1-1.8 4.1-4.1 0-2.2-1.8-4.1-4.1-4.1s-4.2 1.8-4.2 4.1 1.8 4.1 4.2 4.1zm-.1-6.8c1.5 0 2.6 1.2 2.6 2.7s-1.1 2.7-2.6 2.7-2.7-1.2-2.7-2.7c0-1.6 1.2-2.7 2.7-2.7zM31.4 55.9l2.1 3h1.8L33.1 56c1.4-.4 2-1.2 2-2.4 0-.8-.3-1.5-.8-2s-1.1-.6-2.2-.6h-2.3v7.9h1.5v-3h.1zm0-3.4h.6c1.4 0 1.7.5 1.7 1.2 0 .8-.5 1.2-1.6 1.2h-.7v-2.4zM36.9 59h1.4v-6.5h1.5v-1.4h-4.4v1.4h1.5zM41.9 55.6h2.8v3.3h1.5V51h-1.5v3.2h-2.8V51h-1.5v7.9h1.5zM34.1 60.4h1.4v7.5h-1.4zM21.7 61.7v-1.3h-4.1v7.5h4.1v-1.3H19v-1.8h2.6v-1.3H19v-1.8zM27.6 62.8c0-.8-.3-1.4-.8-1.8-.5-.4-1-.6-2-.6h-2.2v7.5H24V65l2 2.9h1.7l-2-2.8c1.3-.3 1.9-1.1 1.9-2.3zM24.7 64H24v-2.3h.6c1.3 0 1.6.5 1.6 1.1 0 .8-.4 1.2-1.5 1.2zM14.8 53.2l3.3 5.7h1.6V51h-1.5v5.8L15 51h-1.7v7.9h1.5zM54 73.1l-2.8-4h-.6v4.8h.5v-4.2l2.9 4.2h.4v-4.8H54zM26 73.3l-1.7-4.2h-.5l2 4.8h.4l2.1-4.8h-.6zM54 67.9l-2-2.8c1.4-.4 2-1.2 2-2.3 0-.8-.3-1.4-.8-1.8-.5-.4-1-.6-2-.6H49v7.5h1.4V65l2 2.9H54zM50.3 64v-2.3h.6c1.3 0 1.6.5 1.6 1.1 0 .8-.5 1.1-1.5 1.1h-.7v.1zM39.6 73.1l-2.7-4h-.6v4.8h.5v-4.2l2.8 4.2h.5v-4.8h-.5zM47.1 73.9v.1h2.6v-.5h-2.1v-1.8h2.1v-.4h-2.1v-1.7h2.1v-.5h-2.6zM44.3 60.3c-2.2 0-4 1.7-4 3.9s1.8 3.9 4 3.9 3.9-1.7 3.9-3.9-1.8-3.9-3.9-3.9zm0 6.4c-1.4 0-2.6-1.1-2.6-2.6 0-1.4 1.1-2.6 2.6-2.6 1.4 0 2.5 1.1 2.5 2.6s-1.1 2.6-2.5 2.6zM31.4 65.2c1.4-.4 2-1.2 2-2.3 0-.8-.3-1.4-.8-1.8-.5-.4-1-.6-2-.6h-2.2V68h1.4v-3l2 2.9h1.7l-2.1-2.7zM29.7 64v-2.3h.6c1.3 0 1.6.5 1.6 1.1 0 .8-.5 1.1-1.5 1.1h-.7v.1zM28.8 73.9v.1h2.7v-.5h-2.2v-1.8h2.1v-.4h-2.1v-1.7h2.2v-.5h-2.7zM37.6 67.9H39v-6.2h1.4v-1.3h-4.2v1.3h1.4zM35.6 70.7c0-1-.6-1.6-2.1-1.6h-1.2v4.8h.5v-4.4h.7c1.1 0 1.6.3 1.6 1.1 0 .9-.5 1.1-1.8 1.1l1.6 2.2h.6l-1.4-1.8c1-.1 1.5-.6 1.5-1.4zM43.6 73.2l-1.7-4.1h-.8v4.8h.5v-4.3l1.8 4.3h.4l1.8-4.3v4.3h.5v-4.8h-.7zM63.8 56.8 60.6 51h-1.7v7.9h1.5v-5.7l3.3 5.7h1.6V51h-1.5zM57.1 63.8l-1.7-3.4h-1.5l2.5 4.7v2.8h1.4v-2.8l2.4-4.7h-1.5zM55 69.6h1.1V74h.5v-4.4h1.1v-.5H55z"/><path d="M99.7 62.2c-.5-.2-1.1-.4-1.9-.4-1.8 0-2.8.8-3.3 1.2l.6-3.8h-2.5L91 69.5h2.5l1-5.6c.6-.5 1.4-.9 2.2-.9.4 0 .8.1 1.1.3.5.4.4 1 .3 1.7l-.8 4.4h2.5l.8-4.9c.1-.6.3-1.6-.9-2.3zm6.7-.5c-2.9 0-3.8 1.3-4.4 2l.6.2c.4-.4 1.2-1.1 2.8-1.1.7 0 1.8.2 2.1 1 .1.3.1.6.1 1h.1l-.4 2.3-.1.9c-.5.2-1.2.5-2.1.5-1.3 0-1.6-.7-1.5-1.3.2-.9 1.2-1.4 2.3-1.4.3 0 .6 0 .9.1l.2-1.1c-.5-.1-.9-.2-1.6-.2-2.2 0-4.2 1-4.5 2.7-.2 1.3.8 2.4 2.8 2.4 1.8 0 2.9-.7 3.3-1.1l-.1.8h2.4l.7-4.4c.1-.7.3-1.7-.6-2.4-.4-.4-1.4-.9-3-.9zm22 7.2c-.2 0-.9 0-1.3-.7-.1-.2-.2-.6-.1-1.2l.6-3.4h2.7l.3-1.6h-2.7l.3-2h-2.5l-.3 2h-2.6l-2.3 3.7-.4.7c-.1-.4-.1-.5-.3-.8l-1.3-3.6h-.8l-3.3 4.4c-.1-.4-.1-.5-.2-.8l-1-3.6h-2.6l2.3 7.5h.9l3.3-4.4 1.8 4.4h.9l3.9-5.9h1.4l-.6 3.7c-.1.7-.1 1.3.5 1.8.6.6 1.6.6 2.1.6 1.2 0 2-.3 2.6-.6l-.2-.5c-.5.2-.7.3-1.1.3zm5.2-4s-.1.2-.2.7c0 .2 0 .3-.1.4h6.7c.1-.8.3-2.2-.8-3.3-1-.9-2.5-1-3.3-1-3.4 0-5.5 1.8-5.9 4-.4 2.3 1.1 4.1 4.6 4.1 3.3 0 4.4-1.5 4.9-2.4l-.6-.2c-.8.7-1.6 1.3-3.3 1.3-2.6 0-2.9-1.5-2.9-2.3 0 0-.1-.2 0-.7s.2-.7.2-.8c.4-.9.9-1.9 2.7-1.9 1.9 0 1.9 1.2 1.9 1.9l-3.9.2zM89 60h-2.5l-1.2 7.3c-.1.7-.1 1.3.5 1.8.6.6 1.6.6 2.1.6 1.2 0 2-.3 2.6-.6l-.2-.5c-.3.1-.6.1-1 .1-.2 0-.9 0-1.3-.7-.1-.2-.2-.6-.1-1.2l.6-3.4h2l.3-1.6h-2L89 60z" class="st5"/><path d="M116 19.8c-10.3 0-18.6 8.3-18.6 18.6S105.7 57 116 57s18.6-8.3 18.6-18.6-8.3-18.6-18.6-18.6zm0 33.5c-8.2 0-14.9-6.7-14.9-14.9s6.7-14.9 14.9-14.9 14.9 6.7 14.9 14.9c0 8.3-6.6 14.9-14.9 14.9zm1.8-24H113l-2.4 14.2c-.2 1.3-.2 2.5.9 3.6 1.2 1.1 3.2 1.2 4 1.2 2.4 0 3.8-.7 5-1.2l-.4-.9c-.6.1-1.1.3-1.9.3-.4 0-1.8 0-2.5-1.3-.3-.5-.4-1.1-.2-2.3l1.1-6.6h3.9l.5-3.1h-3.9l.7-3.9z" style="fill:#ed174c"/><path d="M141.3 60.7h-.6v1.6h-.5v-1.6h-.6v-.4h1.8l-.1.4zm2.4 1.7h-.5V61l-.4.9h-.4l-.4-.9v1.4h-.5v-2h.6l.5 1 .4-1h.6l.1 2z" class="st5"/><path d="M243.7 72.4v-.9h2v1.8c-.4.3-.7.4-1 .5s-.7.1-1.1.1c-.5 0-.9-.1-1.2-.3-.3-.2-.6-.4-.7-.8-.2-.3-.3-.7-.3-1.2s.1-.9.3-1.2c.2-.3.5-.6.8-.8.3-.1.7-.2 1.2-.2s.8 0 1.1.1c.2.1.4.2.6.4.2.2.3.4.3.7l-1.3.2c-.1-.2-.1-.3-.3-.4s-.3-.1-.5-.1c-.3 0-.5.1-.7.3-.2.2-.3.5-.3 1s.1.8.3 1 .4.3.7.3c.1 0 .3 0 .4-.1.1 0 .3-.1.5-.2v-.4h-.8v.2zM249.2 73.2h-1.5l-.2.7h-1.4l1.6-4.3h1.4l1.6 4.3h-1.4l-.1-.7zm-.2-.9-.5-1.5-.5 1.5h1zM251.3 69.7h1.7l.7 2.6.7-2.6h1.7V74H255v-3.3l-.8 3.3h-1l-.8-3.3V74h-1.1v-4.3zM257.1 69.7h2.5c.4 0 .7.1 1 .3.2.2.3.5.3.8s-.1.5-.2.7c-.1.1-.3.2-.5.3.3.1.5.2.7.4.1.2.2.4.2.7 0 .2-.1.4-.2.6s-.2.3-.4.4c-.1.1-.3.1-.5.1-.3 0-.5.1-.6.1h-2.3v-4.4zm1.3 1.6h.6c.2 0 .4 0 .4-.1.1-.1.1-.2.1-.3 0-.1 0-.2-.1-.3-.1-.1-.2-.1-.4-.1h-.6v.8zm0 1.7h.7c.2 0 .4 0 .5-.1s.1-.2.1-.3c0-.1 0-.2-.1-.3-.1-.1-.3-.1-.5-.1h-.7v.8zM261.8 69.7h1.3v3.2h2.1V74h-3.4v-4.3zM265.9 69.7h1.3V74h-1.3v-4.3zM268.3 69.7h1.2l1.6 2.4v-2.4h1.2V74h-1.2l-1.6-2.4V74h-1.2v-4.3zM275.5 72.4v-.9h2v1.8c-.4.3-.7.4-1 .5s-.7.1-1.1.1c-.5 0-.9-.1-1.2-.3-.3-.2-.6-.4-.7-.8-.2-.3-.3-.7-.3-1.2s.1-.9.3-1.2c.2-.3.5-.6.8-.8.3-.1.7-.2 1.2-.2s.8 0 1.1.1c.2.1.4.2.6.4.2.2.3.4.3.7l-1.3.2c-.1-.2-.1-.3-.3-.4s-.3-.1-.5-.1c-.3 0-.5.1-.7.3-.2.2-.3.5-.3 1s.1.8.3 1c.2.2.4.3.7.3.1 0 .3 0 .4-.1.1 0 .3-.1.5-.2v-.4h-.8v.2z" class="st7"/><path d="M235.6 67.8v-4.3h2.2c.4 0 .7 0 .9.1s.4.2.5.4.2.4.2.7c0 .2-.1.4-.2.6-.1.2-.2.3-.4.4-.1.1-.3.1-.5.2.2.1.3.1.3.2l.2.2c.1.1.2.2.2.3l.6 1.2h-1.5l-.7-1.3c-.1-.2-.2-.3-.2-.3-.1-.1-.2-.1-.3-.1h.1v1.7h-1.4zm1.4-2.5h.6c.1 0 .2 0 .4-.1.1 0 .2-.1.2-.1.1-.1.1-.2.1-.2 0-.1 0-.2-.1-.3-.1-.1-.3-.1-.5-.1h-.7v.8zM240.4 63.5h3.5v.9h-2.2v.7h2.1v.9h-2.1v.8h2.3v1h-3.6v-4.3zM244.5 66.4l1.3-.1c0 .2.1.4.2.5.1.2.3.3.6.3.2 0 .3 0 .4-.1.1-.1.2-.2.2-.3 0-.1 0-.2-.1-.3-.1-.1-.3-.2-.7-.2-.6-.1-1-.3-1.2-.5s-.4-.5-.4-.8c0-.2.1-.4.2-.6.1-.2.3-.3.6-.5.3-.1.6-.2 1.1-.2s1 .1 1.3.3c.3.2.5.5.5 1l-1.2.1c0-.2-.1-.3-.2-.4-.1-.1-.3-.1-.4-.1-.2 0-.3 0-.3.1-.1.1-.1.1-.1.2s0 .1.1.2.2.1.4.2c.6.1 1 .3 1.2.4s.4.3.5.5.2.4.2.6c0 .3-.1.5-.2.8-.2.2-.4.4-.6.5-.3.1-.6.2-1 .2-.7 0-1.2-.1-1.5-.4-.7-.6-.8-1-.9-1.4zM249.1 63.5h2.2c.5 0 .8.1 1.1.3.2.2.4.6.4 1s-.1.8-.4 1c-.3.2-.7.4-1.2.4h-.7v1.6h-1.3v-4.3h-.1zm1.4 1.9h.3c.3 0 .4 0 .5-.1s.2-.2.2-.3c0-.1 0-.2-.1-.3-.1-.1-.3-.1-.5-.1h-.4v.8zM253.4 65.7c0-.7.2-1.2.6-1.6.4-.4.9-.6 1.6-.6s1.3.2 1.6.6c.4.4.6.9.6 1.6 0 .5-.1.9-.3 1.2-.2.3-.4.6-.7.7-.3.2-.7.3-1.2.3s-.9-.1-1.2-.2c-.3-.2-.6-.4-.8-.7-.1-.4-.2-.8-.2-1.3zm1.3 0c0 .4.1.7.2.9.2.2.4.3.7.3s.5-.1.7-.3c.2-.2.2-.5.2-1 0-.4-.1-.7-.2-.9-.2-.2-.4-.3-.7-.3s-.5.1-.6.3c-.2.2-.3.6-.3 1zM258.6 63.5h1.2l1.6 2.4v-2.4h1.2v4.3h-1.2l-1.6-2.4v2.4h-1.2v-4.3zM263.4 66.4l1.3-.1c0 .2.1.4.2.5.1.2.3.3.6.3.2 0 .3 0 .4-.1s.2-.2.2-.3c0-.1 0-.2-.1-.3-.1-.1-.3-.2-.7-.2-.6-.1-1-.3-1.2-.5s-.4-.5-.4-.8c0-.2.1-.4.2-.6s.3-.3.6-.5c.3-.1.6-.2 1.1-.2s1 .1 1.3.3c.3.2.5.5.5 1l-1.2.1c0-.2-.1-.3-.2-.4s-.3-.1-.4-.1c-.2 0-.3 0-.3.1-.1.1-.1.1-.1.2s0 .1.1.2.2.1.4.2c.6.1 1 .3 1.2.4s.4.3.5.5.2.4.2.6c0 .3-.1.5-.2.8-.2.2-.4.4-.6.5-.3.1-.6.2-1 .2-.7 0-1.2-.1-1.5-.4-.7-.6-.8-1-.9-1.4zM268.1 63.5h1.3v4.3h-1.3v-4.3zM270.5 63.5h2.5c.4 0 .7.1 1 .3.2.2.3.5.3.8 0 .3-.1.5-.2.7-.1.1-.3.2-.5.3.3.1.5.2.7.4.1.2.2.4.2.7 0 .2-.1.4-.2.6s-.2.3-.4.4c-.1.1-.3.1-.5.1-.3 0-.5.1-.6.1h-2.3v-4.4zm1.3 1.7h.6c.2 0 .4 0 .4-.1.1-.1.1-.2.1-.3 0-.1 0-.2-.1-.3-.1-.1-.2-.1-.4-.1h-.6v.8zm0 1.7h.7c.2 0 .4 0 .5-.1s.1-.2.1-.3c0-.1 0-.2-.1-.3-.1-.1-.3-.1-.5-.1h-.7v.8zM275.2 63.5h1.3v3.2h2.1v1.1h-3.4v-4.3zM279.2 63.5h3.5v.9h-2.2v.7h2.1v.9h-2.1v.8h2.3v1h-3.6v-4.3z" class="st8"/><path d="m255.9 60.6-12.5-6.9a7.67 7.67 0 0 1-3.9-6.4l-.3-14.3c-.1-2.7 1.3-5.2 3.6-6.5l12.3-7.4c2.3-1.4 5.1-1.4 7.5-.1l12.5 6.9c2.3 1.3 3.8 3.7 3.9 6.4l.3 14.3c.1 2.7-1.3 5.2-3.6 6.5l-12.3 7.4c-2.3 1.3-5.2 1.4-7.5.1z" style="fill:#45edff"/><path d="m256.1 53.5-6.6-3.5c-2.2-1.2-3.6-3.5-3.7-6l-.2-7.5c-.1-2.5 1.2-4.9 3.3-6.2l6.4-4c2.1-1.3 4.8-1.4 7-.2l6.6 3.5c2.2 1.2 3.6 3.5 3.7 6l.2 7.5c.1 2.5-1.2 4.9-3.3 6.2l-6.4 4c-2.1 1.3-4.8 1.4-7 .2z" class="st0"/><path d="m257.5 52-7.5-4c-1.3-.7-2.2-2.1-2.2-3.6l-.3-8.5c0-1.5.7-2.9 2-3.7l7.3-4.5c1.3-.8 2.9-.8 4.2-.1l7.5 4c1.3.7 2.2 2.1 2.2 3.6l.3 8.5c0 1.5-.7 2.9-2 3.7l-7.3 4.5c-1.3.7-2.9.8-4.2.1z" style="fill:#00c9f3"/><path d="m249.1 34.1 9 6.4 1.1 10.9 1.1-10.9 9.1-6.3-10.1 4.6z" class="st0"/><path d="M258.6 29.6s-.9-.7-.3-1.9c.7-1.3 2.4-.3 2.4-.3l8.4 4.4s.7-.2.7-1.3c0-.7-.8-1-.8-1l-8-4.8s-.7-.4-1.4-.6c-.7-.1-1-.1-1.7.1s-4.7 1.7-4.7 1.7-.8.2-1.3-.3-.4-1-.2-1.4c.1-.4.5-.6.7-.7s5-2.2 5.2-2.3c.2-.1.9-.4 1.7-.4.8 0 1.3 0 2.1.3s2.2 1.1 2.7 1.4 11.6 6.9 11.6 6.9 1 .6 1.2 1.4 0 1.5-.2 1.8-4.2 3.6-4.2 3.6-.6.6-1.3.7-1.2.2-2-.3c-1-.4-10.6-7-10.6-7zM259.8 49.9s.9.7.3 1.9c-.6 1.3-2.4.3-2.4.3l-8.4-4.4s-.7.2-.7 1.3c0 .7.8 1 .8 1l8 4.7s.7.4 1.4.6c.7.1 1 .1 1.7-.1s4.7-1.7 4.7-1.7.8-.2 1.3.3.4 1 .3 1.4-.5.6-.7.7c-.2.1-5 2.3-5.2 2.4s-.9.4-1.7.4c-.8 0-1.3 0-2.1-.3s-2.2-1.1-2.7-1.4c-.5-.3-11.6-6.8-11.6-6.8s-1-.6-1.2-1.4c-.2-.8-.1-1.5.2-1.8s4.2-3.6 4.2-3.6.6-.6 1.3-.7c.7-.1 1.2-.2 2 .3s10.5 6.9 10.5 6.9z" class="st11"/><path d="M303.6 65.5h2.6v3h2.9v-3h2.7V74h-2.7v-3.4h-2.9V74h-2.6v-8.5zM313.5 65.5h7.1v1.8h-4.4v1.3h4.1v1.7h-4.1V72h4.6v2h-7.2v-8.5h-.1zM322.2 65.5h2.6v6.4h4.1V74h-6.8l.1-8.5zM330.2 65.5h4.4c1 0 1.7.2 2.2.7s.7 1.1.7 1.9c0 .9-.3 1.5-.8 2s-1.3.7-2.4.7h-1.4V74h-2.7v-8.5zm2.6 3.7h.6c.5 0 .9-.1 1.1-.3.2-.2.3-.4.3-.7 0-.3-.1-.5-.3-.7-.2-.2-.5-.3-1-.3h-.8l.1 2z" class="st12"/><path d="M306.2 62.4v-1h2.2v2c-.4.3-.8.5-1.1.6-.3.1-.7.2-1.1.2-.5 0-1-.1-1.3-.3s-.6-.5-.8-.8c-.2-.4-.3-.8-.3-1.3s.1-1 .3-1.3.5-.7.9-.9c.3-.2.7-.2 1.3-.2.5 0 .9 0 1.1.1.3.1.5.2.6.4.2.2.3.4.4.7l-1.4.2c-.1-.2-.2-.3-.3-.4-.1-.1-.3-.1-.5-.1-.3 0-.6.1-.7.3-.2.2-.3.6-.3 1 0 .5.1.9.3 1.1.2.2.4.3.8.3.2 0 .3 0 .5-.1.1 0 .3-.1.5-.2v-.4h-1.1v.1zM312.2 63.3h-1.6l-.2.8H309l1.7-4.7h1.5l1.7 4.7h-1.5l-.2-.8zm-.3-1-.5-1.7-.5 1.7h1zM314.4 59.4h1.9l.7 2.9.7-2.9h1.9V64h-1.2v-3.6l-.9 3.6h-1.1l-.9-3.6V64h-1.2v-4.6h.1zM320.5 59.4h2.7c.4 0 .8.1 1 .3s.4.5.4.8-.1.5-.3.7c-.1.1-.3.2-.5.3.3.1.6.2.7.4.2.2.2.4.2.7 0 .2-.1.5-.2.7s-.3.3-.5.5c-.1.1-.3.1-.5.2-.3 0-.5.1-.6.1h-2.4v-4.7zm1.5 1.8h.6c.2 0 .4 0 .5-.1s.1-.2.1-.3 0-.2-.1-.3-.2-.1-.5-.1h-.6v.8zm0 1.8h.7c.2 0 .4 0 .5-.1s.2-.2.2-.4c0-.1 0-.2-.1-.3s-.3-.1-.5-.1h-.8v.9zM325.6 59.4h1.4v3.5h2.2V64h-3.6v-4.6zM330 59.4h1.4V64H330v-4.6zM332.5 59.4h1.3l1.7 2.6v-2.6h1.3V64h-1.3l-1.7-2.6V64h-1.3v-4.6zM340.2 62.4v-1h2.2v2c-.4.3-.8.5-1.1.6-.3.1-.7.2-1.1.2-.5 0-1-.1-1.3-.3s-.6-.5-.8-.8c-.2-.4-.3-.8-.3-1.3s.1-1 .3-1.3.5-.7.9-.9c.3-.2.7-.2 1.3-.2.5 0 .9 0 1.1.1.3.1.5.2.6.4.2.2.3.4.4.7l-1.4.2c-.1-.2-.2-.3-.3-.4-.1-.1-.3-.1-.5-.1-.3 0-.6.1-.7.3-.2.2-.3.6-.3 1 0 .5.1.9.3 1.1.2.2.4.3.8.3.2 0 .3 0 .5-.1.1 0 .3-.1.5-.2v-.4h-1.1v.1z" class="st13"/><path d="M342.6 68.5h-1.2v-1.2h-2v1.2h-1.2v2.1h1.2v1.2h2v-1.2h1.2z" class="st12"/><circle cx="322.9" cy="37.4" r="19.5" style="fill:#8b9bff"/><defs><circle id="SVGID_1_" cx="322.9" cy="37.4" r="18.5"/></defs><clipPath id="SVGID_00000178191081240935604670000004483344892360384414_"><use xlink:href="#SVGID_1_" style="overflow:visible"/></clipPath><g style="clip-path:url(#SVGID_00000178191081240935604670000004483344892360384414_)"><path d="m320.1 48.3-.3 7.4c1 .2 2 .3 3.1.3 1 0 2-.1 3-.2l-.3-7.4c-.9.2-1.8.3-2.7.3-1-.1-1.9-.2-2.8-.4zM312 34.8l-7.4-.3c-.2 1-.2 1.9-.2 2.9 0 1.1.1 2.1.3 3.1l7.5-.3c-.2-.9-.4-1.8-.4-2.8-.1-.9 0-1.8.2-2.6zM341.4 37.4c0-1-.1-2-.2-2.9l-7.4.3c.2.9.3 1.7.3 2.7s-.1 1.9-.4 2.8l7.5.3c.1-1.1.2-2.1.2-3.2zM325.6 26.6l.3-7.4c-1-.2-2-.2-3-.2s-2.1.1-3.1.3l.3 7.4c.9-.2 1.8-.4 2.8-.4.9 0 1.8.1 2.7.3z" class="st16"/></g><circle cx="322.9" cy="37.4" r="12.3" style="clip-path:url(#SVGID_00000178191081240935604670000004483344892360384414_);fill:#f9e6ff"/><circle cx="322.9" cy="37.4" r="11.2" style="clip-path:url(#SVGID_00000178191081240935604670000004483344892360384414_);fill:#7684e4"/><g style="clip-path:url(#SVGID_00000178191081240935604670000004483344892360384414_)"><path d="M320.8 48.8c.8-.5 2.4-.8 3-1s1.8-.9 2.7-1.5c1-.6 2.5-2.2 2.8-2.7.3-.4 1.3-.8 1.4-1s1-1 1.6-1.4c.5-.4 1.7-1.4 1.9-1.9.3-.5.4-.9.3-1.3-.2-.4-.5-.3-.7-.2s-1.2.9-1.4 1c-.2.1-1.1 1-1.8 1.5s-1.5.7-1.7.8c-.1.1-.5 0-.4-.2s.5-.6.7-.7 1-.7 1.2-.8 1.1-1.1 1.2-1.1c.1-.1 1-.8 1.5-1.2s1.3-1.2 1.6-2.1-.3-1-.6-1c-.4 0-1.2.6-1.4.8-.2.2-1.2 1.2-1.7 1.5-.4.3-1.5 1.1-1.8 1.3-.2.2-2 1.6-2.2 1.7-.3.1 0-.4.2-.6.1-.2.9-.9 1.2-1.2.3-.3.8-.7 1.5-1.2s1.7-1.5 2.1-2c.4-.4 1.7-1.8 1.8-1.9.1-.2.6-1.2.1-1.4-.6-.3-.9-.1-1.3.1-.3.2-1.4 1.2-1.6 1.4s-1.5 1.2-1.7 1.4c-.2.1-1.1.8-1.1.8s-.5.4-1.1 1.1c-.6.7-2.2 1.7-2.5 1.8s-.3-.2-.2-.5.7-.8.8-1c.2-.2 1.5-1.6 2-2s1.4-.9 1.8-1.2 1.6-1.2 1.9-1.7.1-1-.3-1.2c-.3-.2-1.1.1-1.3.3-.3.2-2.7 1.7-3.2 1.9s-1.7 1.1-2.2 1.4c-.5.3-2.7 2.2-2.9 2.4-.2.3-1.2 1.3-1.9 1.7s-1.4.3-1.7.2c-.4-.1-.7-.4-.9-1.1-.2-.7-.7-1.8-.9-2.7-.1-1-.3-1.9-.6-2.4s-1.3-1.1-2-1.2c-.7 0-.9.6-.6 1.3.3.8.6 1.5.6 1.9s.1 3.5 0 4.4-.1 1.6 0 2.4c.1.8.2 3.2.1 3.5s-.3 1-.8 2.3-1.3 1.9-1.3 1.9l-1.9 1.7c1.6 1.8 3.5 3.2 5.6 4.3.7-.8 1.3-1.5 1.7-1.9.9-1.3 3.6-3 4.4-3.5z" style="fill:#ccc2ff"/></g><path d="M330.5 24.5c-1.2.8-1.9 1.2-2.1 1.3-.3.1-2.7.6-3.5.7s-1.5.2-2.4.6c-.9.3-3.9 1-4.3 1.1s-1.2 0-2-.2c-.8-.1-1.4.2-1.2.9.2.7 1.1 1.5 1.6 1.7.6.2 1.5.2 2.5.1s2.2.2 2.9.2c.8 0 1.1.3 1.3.6.2.3.4 1 .2 1.7-.2.8-1 2-1.2 2.3s-1.5 3-1.7 3.5-.8 2-.9 2.5-1 3.4-1.2 3.7c-.1.3-.2 1.1.1 1.4.2.3.7.4 1.2 0s1-1.8 1.3-2.3l.8-2c.2-.6 1.3-2.2 1.5-2.5s.5-.8.8-1.1c.3-.2.6-.3.5.1-.1.3-.7 2.2-1.2 2.9-.5.8-.8 1.3-.8 1.3s-.4 1.1-.5 1.3-.8 1.7-.9 2-.9 1.6-1 2-.1.7.2 1.3c.4.5 1.3-.2 1.4-.4.1-.1 1.1-1.7 1.5-2.3.3-.5 1.1-1.8 1.4-2.6s.6-1.3.9-1.7c.2-.4.8-1.3.9-1.5.2-.2.6-.6.5-.3s-1 2.4-1.2 2.6c-.2.3-.7 1.6-.9 2.1-.2.5-.9 1.7-1.1 2s-.5 1.2-.5 1.6.2.9 1.1.4 1.4-1.5 1.7-2.1l.9-1.8c.1-.1.8-1.3.9-1.5s.4-1.2.5-1.4.4-.7.6-.8.4.2.3.3c-.1.2-.1 1.1-.4 1.9s-1 1.9-1 2.2c-.1.2-.7 1.3-.7 1.6s0 .6.4.7c.4.1.8-.2 1.3-.6.4-.4 1.2-1.8 1.5-2.4.2-.6.9-1.7 1-1.9s.3-1.2.6-1.7c.3-.4 1.6-2.4 2-3.5s.8-2.4.8-3.1c.1-.7-.1-2.3.3-3.2.3-.9 1.4-4 2.3-5.2.1-.2.3-.4.5-.6-1.4-1.9-3.2-3.5-5.2-4.7l-.5 1c-.2.1-.5 1.1-1.8 1.8z" class="st0" style="clip-path:url(#SVGID_00000178191081240935604670000004483344892360384414_)"/><path d="M310.3 46.6c-.2 0-.3-.1-.4-.2-2.8-4.2-3.5-9.5-1.8-14.2 1.4-4 4.3-7.2 8.2-9 3.8-1.8 8.1-2 12.1-.6.3.1.4.4.3.7-.1.3-.4.4-.7.3-3.7-1.3-7.8-1.1-11.3.6-3.6 1.7-6.3 4.7-7.6 8.4-1.6 4.4-.9 9.4 1.7 13.3.2.2.1.6-.1.7h-.4z" class="st0" style="clip-path:url(#SVGID_00000178191081240935604670000004483344892360384414_)"/></svg>