<?xml version="1.0" encoding="utf-8"?>
<!-- Generator: Adobe Illustrator 27.2.0, SVG Export Plug-In . SVG Version: 6.00 Build 0)  -->
<svg version="1.1" id="Layer_1" xmlns="http://www.w3.org/2000/svg" xmlns:xlink="http://www.w3.org/1999/xlink" x="0px" y="0px"
	 viewBox="0 0 426 92" style="enable-background:new 0 0 426 92;" xml:space="preserve">
<style type="text/css">
	.st0{fill:#008AC9;}
	.st1{fill:#EB001B;}
	.st2{fill:#183168;}
	.st3{fill:#FFFFFF;}
	.st4{fill:#FF5F00;}
	.st5{fill:#004FA3;}
	.st6{fill:#1434CB;}
	.st7{fill:#FFA31C;}
	.st8{fill:#003087;}
	.st9{fill:#0070E0;}
	.st10{fill:#001C64;}
</style>
<g>
	<g>
		<path id="path2491_00000177473478454066025180000010138388086193874052_" class="st0" d="M55.4,69.4c0-0.3-0.2-0.5-0.5-0.5h-1.7
			c-0.4,0-0.6,0.2-0.6,0.6v3c0,0.4,0.2,0.6,0.6,0.6h1.5c0.2,0,0.3-0.1,0.4-0.2c0.1-0.1,0.2-0.2,0.2-0.3v-3.2H55.4z M50.6,69
			c0-0.7,0.2-1.4,0.5-1.7c0.2-0.2,0.4-0.3,0.6-0.4c0.3-0.1,0.5-0.2,0.7-0.2h3.1c1.4,0,2,0.7,2,2.2v4.6c0,0.5-0.2,1-0.6,1.4
			c-0.4,0.4-0.8,0.6-1.4,0.6h-2.9v3.3h-2V69"/>
		<path id="path2493_00000044857178148885234910000003680645886598880164_" class="st0" d="M61.5,72.7c0,0.1,0.1,0.2,0.2,0.3
			s0.2,0.1,0.4,0.1h1.7c0.4,0,0.5-0.1,0.5-0.4v-0.6c0-0.3-0.2-0.5-0.6-0.5h-1.6c-0.2,0-0.3,0-0.4,0.1s-0.1,0.2-0.1,0.4L61.5,72.7z
			 M64.2,69.3c0-0.3-0.2-0.5-0.5-0.5h-4.3v-2.2h4.9c1.4,0,2.1,0.7,2.1,2v4.7c0,0.6-0.2,1.1-0.5,1.5c-0.3,0.4-0.8,0.6-1.4,0.6h-3
			c-1.5,0-2.1-0.6-2.2-2v-1.8c0-1.4,0.7-2,2.1-2.1L64.2,69.3"/>
		<path id="path2495_00000122715158331120981100000000522163628043738273_" class="st0" d="M72.4,76.4c0.2,0,0.3-0.1,0.4-0.2
			S73,76,73,75.9v-0.5h-2.8c-0.3,0-0.6,0-0.8-0.1c-0.2-0.1-0.4-0.2-0.6-0.4c-0.2-0.2-0.3-0.4-0.4-0.7c-0.1-0.2-0.1-0.5-0.1-0.8v-6.5
			h2.1v5.8c0,0.4,0.2,0.7,0.5,0.7h1.5c0.2,0,0.3-0.1,0.4-0.2S73,73,73,72.9V67h2.1v9.6c0,0.7-0.2,1.3-0.5,1.7s-0.8,0.6-1.5,0.6h-5
			v-2.2h4.2"/>
		<path id="path2497_00000183950317819112684350000007687190014331779209_" class="st0" d="M76.8,73.2h3.8c0.3,0,0.5-0.1,0.5-0.4
			v-0.4c-0.1-0.2-0.2-0.2-0.3-0.2h-1.9c-0.5,0-1.1-0.2-1.5-0.5c-0.4-0.3-0.6-0.7-0.6-1.3v-1.7c0-1.3,0.7-1.9,2.1-2h4.5v2.2h-3.7
			c-0.4,0-0.6,0.1-0.6,0.4v0.2c0,0.3,0.2,0.4,0.6,0.4h1.9c0.5,0,1,0.2,1.3,0.5c0.3,0.4,0.5,0.8,0.5,1.4v1.7c0,0.4-0.2,1-0.6,1.4
			c-0.2,0.2-0.4,0.4-0.6,0.4c-0.2,0.1-0.5,0.1-0.8,0.1h-4.5L76.8,73.2"/>
		<path id="path2499_00000101097964186357475440000008719565957411459724_" class="st0" d="M87.1,72.7c0,0.1,0.1,0.2,0.2,0.3
			s0.2,0.1,0.4,0.1h1.7c0.4,0,0.5-0.1,0.5-0.4v-0.6c0-0.3-0.2-0.5-0.6-0.5h-1.6c-0.2,0-0.3,0-0.4,0.1s-0.1,0.2-0.1,0.4v0.6H87.1z
			 M89.9,69.3c0-0.3-0.2-0.5-0.5-0.5h-4.3v-2.2H90c1.4,0,2.1,0.7,2.1,2v4.7c0,0.6-0.2,1.1-0.5,1.5c-0.3,0.4-0.8,0.6-1.4,0.6h-3
			c-1.5,0-2.1-0.6-2.2-2v-1.8c0-1.4,0.7-2,2.1-2.1L89.9,69.3"/>
		<path id="path2501_00000137842500314627163610000001911222102393183147_" class="st0" d="M93.7,65.4c0-0.6,0.2-1.1,0.6-1.5
			c0.4-0.3,1-0.5,1.7-0.5h1.4v2.1h-0.8c-0.4,0-0.6,0.2-0.7,0.6v0.4h1.5v2.2h-1.5v6.6h-2.1v-9.9"/>
		<path id="path2503_00000031188212778447599630000017200163097304887447_" class="st0" d="M103.5,69.3c0-0.2,0-0.2-0.1-0.3
			s-0.2-0.1-0.3-0.1h-1.5c-0.2,0-0.3,0.1-0.4,0.2s-0.2,0.2-0.2,0.4v0.8L103.5,69.3z M100.9,72.4L100.9,72.4c0,0.3,0,0.4,0.1,0.5
			c0.1,0.1,0.1,0.2,0.3,0.2h4.5v2.2h-4.7c-0.4,0-0.7,0-1-0.1c-0.2-0.1-0.5-0.2-0.7-0.4c-0.2-0.2-0.4-0.4-0.5-0.7
			c-0.1-0.2-0.1-0.6-0.1-1.1v-4.5c0-1.4,0.7-2,2.1-2h2.9c1.4,0,2,0.7,2,2.1v1.7L100.9,72.4"/>
		<path id="path2505_00000046313601595847783280000010636172197376554400_" class="st0" d="M110.2,75.4c-0.3,0-0.6,0-0.8-0.1
			c-0.3,0-0.5-0.2-0.8-0.4c-0.3-0.2-0.5-0.5-0.6-0.8c-0.1-0.3-0.2-0.6-0.2-1.1v-4.1c0-0.3,0-0.6,0.1-0.8c0.1-0.2,0.2-0.5,0.4-0.7
			c0.2-0.2,0.5-0.4,0.8-0.5c0.3-0.1,0.5-0.1,1-0.1h3.3v0.5h-3.2c-0.5,0-1.1,0.1-1.4,0.3c-0.3,0.2-0.5,0.7-0.5,1.3V73
			c0,0.3,0,0.5,0.1,0.8c0.1,0.3,0.2,0.5,0.4,0.7c0.2,0.2,0.4,0.3,0.7,0.3c0.2,0,0.5,0.1,0.7,0.1h3.1v0.5H110.2"/>
		<path id="path2507_00000075850522419755730640000009989046396617603998_" class="st0" d="M121.8,70.1h-4.3c-0.5,0-1,0.2-1.2,0.5
			c-0.3,0.3-0.4,0.7-0.4,1.3v1.3c0,0.2,0,0.5,0.1,0.7c0.1,0.2,0.2,0.4,0.4,0.6c0.4,0.3,0.7,0.4,1.3,0.4h2.6c1.1,0,1.7-0.6,1.7-1.7
			V70C122,70.1,121.8,70.1,121.8,70.1z M122.3,73.1c0,0.3,0,0.6-0.1,0.8c-0.1,0.3-0.2,0.5-0.4,0.8c-0.4,0.4-1.1,0.7-1.7,0.7h-2.5
			c-0.6,0-1.2-0.2-1.6-0.6s-0.6-1-0.6-1.6v-1.4c0-1.5,0.7-2.2,2.2-2.3h4.2V69c0-0.5-0.1-0.8-0.4-1.3c-0.2-0.2-0.4-0.4-0.6-0.4
			c-0.2-0.1-0.5-0.1-0.8-0.1h-4.7v-0.5h4.5c0.4,0,0.7,0,1.1,0.1c0.2,0,0.3,0.1,0.4,0.2s0.3,0.2,0.4,0.4c0.4,0.5,0.6,1.1,0.5,1.8V73"
			/>
		<path id="path2509_00000099639054871619774280000000948125259456578989_" class="st0" d="M127.1,67.1c-1.2,0-1.8,0.6-1.8,2v6.3
			h-0.5v-6.3c0-1.7,0.7-2.4,2.3-2.4h0.5v0.4H127.1"/>
		<path id="path2511_00000037688541315857815870000017605832032989197479_" class="st0" d="M135.8,67.1h-4c-0.3,0-0.5,0-0.7,0.1
			s-0.5,0.2-0.7,0.4s-0.3,0.4-0.4,0.6c-0.1,0.2-0.1,0.5-0.1,0.8v4c0,0.6,0.2,1.2,0.6,1.4c0.2,0.1,0.4,0.2,0.6,0.2
			c0.2,0.1,0.5,0.1,0.7,0.1h1.8c0.6,0,1.2-0.1,1.6-0.4c0.4-0.3,0.6-0.7,0.6-1.5V67.1z M136.3,72.9c0,1.7-1,2.4-2.6,2.4h-1.9
			c-0.4,0-0.7,0-1.1-0.1c-0.3-0.1-0.6-0.3-1-0.6c-0.2-0.3-0.4-0.5-0.4-0.8c-0.1-0.3-0.1-0.6-0.1-1v-3.7c0-1.7,0.8-2.5,2.5-2.5h4
			v-2.9h0.5v9.2"/>
		<path id="path2513_00000063607564588519410630000006753114379096778405_" class="st1" d="M38.6,66.4c0.2-0.1,0.3-0.1,0.5-0.2
			c0.3-1.5,1.6-2.5,3.2-2.5s2.9,1.1,3.2,2.5c0.5,0.1,0.8,0.3,1.2,0.5v-0.8c-0.2-2.2-2.1-4-4.3-4c-2.3,0-4.2,1.9-4.3,4.2v0.6
			C38.1,66.6,38.3,66.5,38.6,66.4"/>
		<path id="path2515_00000048462625419409178810000005174601278028587430_" class="st1" d="M44.8,66.7h-5.3c-0.2,0-0.5,0.1-0.7,0.2
			c-0.2,0.1-0.4,0.2-0.6,0.4c-0.3,0.4-0.5,1-0.5,1.7v4.1c0,0.7,0.2,1.4,0.5,1.7c0.2,0.2,0.4,0.3,0.6,0.4c0.3,0.1,0.5,0.2,0.7,0.2
			h5.3c1.4,0,2-0.7,2-2.2V69C46.9,67.4,46.2,66.7,44.8,66.7"/>
	</g>
	<g>
		<path class="st2" d="M390.6,39.5h2.2l-1.1-3L390.6,39.5z M388.8,29.5h4.9c1.1-0.1,2-1.1,2-2.2c0-1.2-1-2.2-2.2-2.2h-1.8
			c-0.4,0-0.6-0.2-0.6-0.6V22c0.1-0.3,0.3-0.6,0.6-0.6l0.7-0.1c1.1,0,2-0.9,2-2s-0.9-2.1-2-2.1h-4.3v11.5
			C388.2,29.3,388.4,29.5,388.8,29.5L388.8,29.5z M384.4,9.6h-3.3c-0.3,0-0.5,0.3-0.5,0.6v3.3h3.9V9.6H384.4z"/>
		<path class="st2" d="M402.5,9.6h-14.2v3.9h3.6c3.8,0,6.4,2.1,6.4,5.8c0,1.4-0.7,2.9-1.7,3.7c1.5,1,2.6,2.8,2.6,4.8
			c0,3-2.4,5.5-5.4,5.6H385c-0.4,0-0.6-0.2-0.6-0.6V18.4l2.6-1h-6.5v26.4c0,0.3,0.2,0.6,0.5,0.6h21.4c0.5,0,0.6-0.3,0.6-0.6V10.2
			C403.1,9.9,403,9.6,402.5,9.6z M387,39.5h-1.5v2.1c0,0.2-0.1,0.2-0.2,0.2h-0.6c-0.1,0-0.3,0.1-0.3-0.2v-5.9c0-0.1,0-0.3,0.2-0.3
			h2.3c1.2,0,2.1,1,2.1,2C389,38.6,388.1,39.5,387,39.5z M394.4,41.8h-0.5c-0.1,0-0.3-0.1-0.4-0.3s-0.4-1.1-0.4-1.1h-3
			c0,0-0.3,0.9-0.4,1.1c-0.1,0.2-0.2,0.3-0.4,0.3h-0.5c-0.3,0-0.2-0.3-0.2-0.3s2.1-5.7,2.2-5.9s0.2-0.3,0.4-0.3h0.7
			c0.3,0,0.3,0.1,0.4,0.3s2.2,5.9,2.2,5.9S394.7,41.8,394.4,41.8L394.4,41.8z M399.1,35.6c0,0-1.2,2.1-2.1,3.8v2.2
			c0,0.2-0.2,0.2-0.3,0.2h-0.5c-0.2,0-0.2-0.1-0.2-0.2v-2.1c-1-1.7-2.1-3.8-2.1-3.8s-0.1-0.3,0.2-0.3h0.6c0.1,0,0.3,0.1,0.4,0.3
			l0.3,0.5l1.2,2.1l1.2-2.1l0.3-0.5c0.1-0.2,0.2-0.3,0.4-0.3h0.6C399.4,35.4,399.1,35.6,399.1,35.6z"/>
		<path class="st2" d="M387,36.5h-1.5v2h1.5c0.6,0,1-0.4,1-1C388,37,387.6,36.5,387,36.5z M403.7,46c0.7,0,1.2-0.5,1.2-1.2
			C404.9,45.5,404.3,46,403.7,46z"/>
		<path class="st3" d="M403.7,7.8h-23.6c-0.7,0-1.2,0.5-1.2,1.2v35.8c0,0.7,0.5,1.2,1.2,1.2h23.6c0.7,0,1.2-0.6,1.2-1.2V9.1
			C404.9,8.4,404.3,7.8,403.7,7.8z M391.7,25.1h1.8c1.2,0,2.2,1,2.2,2.2c0,1.1-0.9,2.1-2,2.2h-4.9c-0.4,0-0.6-0.2-0.6-0.6V17.3h4.3
			c1.1,0,2,1,2,2.1s-0.9,2-2,2l-0.7,0.1c-0.4,0-0.6,0.3-0.6,0.6v2.5C391.1,24.9,391.4,25.1,391.7,25.1L391.7,25.1z M380.6,10.2
			c0-0.3,0.3-0.6,0.5-0.6h3.3v3.9h-3.9C380.6,11.5,380.6,10.2,380.6,10.2z M403.1,43.7c0,0.3-0.2,0.6-0.6,0.6h-21.4
			c-0.3,0-0.5-0.3-0.5-0.6V17.3h6.5l-2.6,1v14.5c0,0.4,0.2,0.6,0.6,0.6h8.8c3-0.1,5.4-2.6,5.4-5.6c0-2-1.1-3.8-2.6-4.8
			c1-0.9,1.7-2.3,1.7-3.7c0-3.7-2.6-5.8-6.4-5.8h-3.6V9.6h14.2c0.5,0,0.6,0.3,0.6,0.6v33.5H403.1z"/>
		<path class="st3" d="M398.9,35.4h-0.6c-0.2,0-0.3,0.1-0.4,0.3l-0.3,0.5l-1.2,2.1l-1.2-2.1l-0.3-0.5c-0.1-0.2-0.3-0.3-0.4-0.3h-0.6
			c-0.3,0-0.2,0.3-0.2,0.3s1.2,2.1,2.1,3.8v2.1c0,0.1,0.1,0.2,0.2,0.2h0.5c0.1,0,0.3,0,0.3-0.2v-2.2c1-1.7,2.1-3.8,2.1-3.8
			S399.2,35.4,398.9,35.4z M387,35.4h-2.3c-0.2,0-0.2,0.2-0.2,0.3v5.9c0,0.3,0.2,0.2,0.3,0.2h0.6c0.1,0,0.2-0.1,0.2-0.2v-2.1h1.5
			c1.1,0,2.1-0.9,2.1-2.1C389,36.4,388.1,35.4,387,35.4z M387,38.5h-1.5v-2h1.5c0.6,0,1,0.5,1,1C388,38.1,387.6,38.5,387,38.5z
			 M392.5,35.7c-0.1-0.2-0.2-0.3-0.4-0.3h-0.7c-0.3,0-0.3,0.1-0.4,0.3s-2.2,5.9-2.2,5.9s-0.1,0.3,0.2,0.3h0.5c0.2,0,0.3-0.1,0.4-0.3
			s0.4-1.1,0.4-1.1h3c0,0,0.3,0.9,0.4,1.1c0.1,0.2,0.3,0.3,0.4,0.3h0.5c0.3,0,0.2-0.3,0.2-0.3S392.5,35.8,392.5,35.7z M390.6,39.5
			l1.1-3l1.1,3H390.6z"/>
	</g>
	<g>
		<path class="st4" d="M311.7,63.6v-0.4c0-0.2,0-0.4-0.1-0.6l-2.6,1.9h-0.1c-0.1,0.3-0.2,0.6-0.4,0.9c-0.1,0.3-0.4,0.6-0.7,0.9
			c-0.7,0.6-1.5,1-2.5,1c-1,0-1.9-0.4-2.6-1.1c-0.4-0.4-0.7-0.9-0.8-1.4c-0.1-0.4-0.1-0.7-0.1-1.1c0-0.7,0.2-1.3,0.5-1.9
			c0.5-0.9,1.5-1.6,2.5-1.8c0.1,0,0.3-0.1,0.4-0.1h0.1c0.4,0,0.7,0.1,1.1,0.1c0.4,0.1,0.7,0.3,1,0.5c0.1,0.1,0.3,0.2,0.4,0.3
			l2.2-1.6c-0.1-0.1-0.2-0.2-0.4-0.4c-1.1-1-2.7-1.7-4.3-1.7c-1.2,0-2.2,0.3-3.2,0.9c-0.7,0.4-1.2,0.8-1.6,1.4
			c-0.9,1.1-1.4,2.5-1.4,4c0,0.4,0,0.7,0.1,1.1c0.1,0.4,0.2,0.9,0.4,1.4c0.1,0.4,0.3,0.8,0.4,1.2l0.7,1.3c0.3,0.5,0.6,1.1,0.9,1.6
			c0.3,0.5,0.6,1,0.9,1.4c0.4,0.7,0.9,1.4,1.3,2c0.4,0.6,0.7,1.1,1,1.5c0.1,0.1,0.2,0.3,0.4,0.3c0.1,0,0.1,0.1,0.1,0.1
			c0.1,0,0.4-0.1,0.5-0.4c0.1-0.1,0.1-0.1,0.1-0.2c0.4-0.5,0.9-1.3,1.4-2.1C309.4,70,311.8,65.9,311.7,63.6L311.7,63.6z"/>
		<path class="st5" d="M283.9,71.2c-0.4,0-0.7,0.3-0.7,0.7v8.1c0,0.4,0.3,0.7,0.7,0.7h12.6c0.4,0,0.7-0.3,0.7-0.7v-8.1
			c0-0.4-0.3-0.7-0.7-0.7C296.5,71.2,283.9,71.2,283.9,71.2z M295.8,79.3h-11.2v-6.8h11.2V79.3z"/>
		<path class="st5" d="M307.7,81.5h-0.2v-6.8c-0.3,0.4-0.5,0.7-0.7,1c-0.2,0.3-0.4,0.4-0.7,0.6v5.1h-0.9v-4.9
			c-0.3-0.1-0.8-0.2-1.2-0.8c-0.1-0.1-0.1-0.2-0.2-0.3v6h-4.2v-9.7h1.6c-0.3-0.4-0.6-1-0.8-1.4H299c-0.4,0-0.7,0.3-0.7,0.7v10.5
			h-15.9V69.6c0.4,0.1,0.7,0.1,1,0.1c1.5,0,2.8-0.7,3.6-1.9c0.8,1.2,2.2,1.9,3.6,1.9s2.8-0.7,3.6-1.9c0.8,1.2,2.2,1.9,3.6,1.9
			c0.7,0,1.4-0.1,2-0.5c-0.2-0.4-0.4-0.9-0.6-1.3c-0.4,0.2-0.9,0.4-1.3,0.4c-1.3,0-2.5-0.9-2.8-2.2h3.5c-0.1-0.5-0.3-1-0.4-1.4
			h-17.2l2.9-5c0.1-0.1,0.1-0.1,0.2-0.1h15.2c0.4-0.5,0.7-1,1.2-1.4h-16.4c-0.6,0-1.1,0.3-1.4,0.8l-3.5,6.1
			c-0.1,0.1-0.1,0.2-0.1,0.4c0,1.4,0.7,2.8,1.9,3.6v12.6h-0.2c-0.4,0-0.7,0.3-0.7,0.7c0,0.4,0.3,0.7,0.7,0.7H308
			c0.4,0,0.7-0.3,0.7-0.7C308.5,81.9,308.1,81.5,307.7,81.5L307.7,81.5z M293.4,66.1c-0.3,1.3-1.5,2.2-2.8,2.2s-2.5-0.9-2.8-2.2
			H293.4z M280.4,66.1h5.7c-0.3,1.3-1.5,2.2-2.8,2.2C281.9,68.3,280.8,67.4,280.4,66.1z M313.2,59.4c0-0.1-0.1-0.2-0.1-0.3
			c-0.3-0.4-0.7-0.5-1.1-0.4c-0.1,0-0.3,0.1-0.4,0.1l-0.3,0.2l-3.8,2.8l-0.1,0.1l-1.1,0.8l-0.2,0.1l-0.3,0.2l-0.5-1.3
			c-0.1-0.4-0.5-0.6-0.9-0.7c-0.1,0-0.4,0-0.6,0.1c-0.2,0.1-0.4,0.2-0.5,0.4c-0.1,0.1-0.1,0.4-0.1,0.6c0,0.1,0,0.3,0.1,0.4l0.9,2
			l0.2,0.4c0.1,0.3,0.4,0.5,0.7,0.6h0.3c0.2,0,0.4-0.1,0.7-0.2l1.3-0.9l0.1-0.1l0.5-0.4l0.6-0.4l3.8-2.8l0.4-0.3
			C313.2,60.4,313.3,59.8,313.2,59.4L313.2,59.4z"/>
		<path d="M316.6,69.4h-1.7v-9.7h3.9c1.1,0,1.9,0.3,2.5,0.8c0.5,0.6,0.8,1.3,0.8,2c0,0.9-0.3,1.6-0.9,2.2c-0.6,0.5-1.3,0.8-2.2,0.8
			h-2.4L316.6,69.4L316.6,69.4z M316.6,64h2.1c0.5,0,1-0.1,1.3-0.4c0.3-0.3,0.4-0.6,0.4-1c0-0.4-0.1-0.7-0.4-1
			c-0.3-0.3-0.7-0.4-1.4-0.4h-1.9L316.6,64L316.6,64z M330.5,69.4h-1.9l-0.7-2.3h-3.7l-0.7,2.3h-1.5l3.2-9.7h2.2L330.5,69.4z
			 M327.4,65.7l-1.4-4.3l-1.4,4.3H327.4L327.4,65.7z M334.7,69.4h-1.9v-4.1l-3.3-5.6h2.1l2.3,4l2.2-4h1.6l-3.1,5.6V69.4L334.7,69.4z
			 M342.9,69.4h-1.7v-9.7h1.7V69.4z M352.3,69.4h-1.7l-3.6-6.2c-0.1-0.1-0.1-0.2-0.3-0.4c-0.1-0.1-0.1-0.2-0.3-0.4v7.1h-1.4v-9.7
			h1.9l3.5,5.7c0,0.1,0.2,0.4,0.6,1v-6.8h1.3L352.3,69.4L352.3,69.4z M356.9,65v1.3h-3.6V65H356.9z M356.9,67l1.7-0.4
			c0.2,1,1,1.4,2.3,1.4c0.6,0,1.1-0.1,1.4-0.4c0.3-0.2,0.5-0.5,0.5-0.9c0-0.3-0.1-0.5-0.2-0.7c-0.1-0.2-0.4-0.4-1-0.5l-1.9-0.4
			c-0.7-0.1-1.1-0.4-1.4-0.6s-0.5-0.5-0.7-0.9c-0.1-0.4-0.3-0.8-0.3-1.2c0-0.9,0.3-1.6,1-2.1c0.7-0.5,1.5-0.8,2.5-0.8
			c0.8,0,1.6,0.1,2.2,0.5c0.7,0.4,1,0.9,1.3,1.6l-1.6,0.4c-0.2-0.7-0.8-1.1-1.8-1.1c-0.5,0-1,0.1-1.3,0.4c-0.3,0.2-0.4,0.5-0.4,0.9
			c0,0.5,0.4,1,1.3,1.2l1.6,0.4c1,0.2,1.6,0.6,2,1.1c0.4,0.5,0.5,1,0.5,1.6c0,1-0.4,1.7-1,2.2c-0.7,0.5-1.6,0.8-2.8,0.8
			c-1,0-1.8-0.2-2.5-0.6C357.6,68.5,357.1,67.9,356.9,67L356.9,67z M369.6,69.4h-1.9v-8.2h-2.6v-1.5h7v1.5h-2.6L369.6,69.4
			L369.6,69.4z M376.6,69.5c-1.3,0-2.3-0.4-3-1.4c-0.7-1-1-2.2-1-3.6s0.4-2.6,1.1-3.5c0.7-1,1.8-1.4,3-1.4c1.3,0,2.2,0.4,3,1.4
			c0.7,1,1.1,2.2,1.1,3.6c0,1.5-0.4,2.7-1.1,3.6C378.8,69,377.8,69.5,376.6,69.5z M376.6,68.1c0.6,0,1.2-0.2,1.6-0.7
			c0.4-0.5,0.7-1.5,0.7-2.8c0-1.1-0.1-2-0.5-2.6c-0.4-0.6-0.9-1-1.6-1c-1.5,0-2.2,1.2-2.2,3.6c0,1.2,0.2,2.1,0.6,2.7
			C375.3,67.8,375.9,68.1,376.6,68.1L376.6,68.1z M389.8,69.4H388l-1.5-3.9H384v3.9h-1.7v-9.7h4.2c1.2,0,2,0.3,2.6,0.8
			c0.5,0.5,0.8,1.2,0.8,2c0,1.3-0.6,2.1-1.7,2.5L389.8,69.4L389.8,69.4z M384.1,63.9h2.2c0.6,0,1.1-0.1,1.4-0.4
			c0.3-0.3,0.4-0.6,0.4-1.1c0-0.4-0.1-0.7-0.4-1c-0.3-0.3-0.7-0.4-1.3-0.4h-2.3V63.9L384.1,63.9z M397.9,69.4h-6.2v-9.7h6.2v1.4
			h-4.5v2.6h3.6v1.4h-3.6v2.7h4.5L397.9,69.4L397.9,69.4z M385.4,72.6v2.2H382v-2h-0.8c-0.1,0-0.1,0-0.2,0.1
			c-0.1,0.1-0.1,0.1-0.1,0.2l-0.3,1.8h-3v-0.4c0-0.2,0-0.4,0.1-0.6c0.1-0.1,0.1-0.3,0.2-0.4s0.2-0.1,0.4-0.2
			c0.1-0.1,0.3-0.1,0.5-0.1c0.1,0,0.2,0,0.4-0.1c0.1,0,0.1-0.1,0.1-0.2v-0.8c-0.3-0.1-0.5-0.1-0.8-0.1c-0.4,0-0.7,0.1-1,0.1
			c-0.3,0.1-0.6,0.3-0.7,0.4c-0.2,0.2-0.4,0.4-0.5,0.7c-0.1,0.3-0.1,0.7-0.1,1v0.4h-2.3c-0.1,0-0.2,0-0.3,0.1
			c-0.1,0.1-0.1,0.1-0.1,0.2l-1.3,3.4c-0.1,0.1-0.1,0.2-0.1,0.4s-0.1,0.2-0.1,0.4c0-0.1-0.1-0.2-0.1-0.4s-0.1-0.2-0.1-0.4l-1.4-3.4
			c0-0.1-0.1-0.1-0.1-0.2c-0.1-0.1-0.1-0.1-0.3-0.1h-1.4l2.7,6.1l-1.3,2.6h1.2c0.1,0,0.3,0,0.4-0.1c0.1-0.1,0.1-0.1,0.1-0.2l3-7.1
			h1.6v5.4h1.6v-5.4h2.8v3.6c0,0.6,0.1,1,0.4,1.3s0.7,0.5,1.3,0.5c0.3,0,0.6-0.1,1-0.1c0.3-0.1,0.6-0.2,0.8-0.4l-0.4-0.7
			c0-0.1-0.1-0.1-0.1-0.1H383c-0.1,0-0.1,0.1-0.1,0.1c-0.1,0-0.1,0.1-0.1,0.1h-0.2c-0.1,0-0.3-0.1-0.4-0.1c-0.1-0.1-0.1-0.3-0.1-0.4
			v-3.5h3.3v2.2l2.1-2.1l0.7-0.7L385.4,72.6L385.4,72.6z M347,79.6c-0.2,0.2-0.4,0.4-0.7,0.5c-0.2,0.1-0.5,0.1-0.7,0.1
			c-0.4,0-0.7-0.1-0.8-0.3c-0.2-0.2-0.3-0.5-0.3-1v-4.2h-1.6V79c0,0.4,0.1,0.7,0.1,1c0.1,0.3,0.2,0.6,0.4,0.8
			c0.2,0.2,0.4,0.4,0.7,0.5c0.3,0.1,0.6,0.1,1,0.1c0.2,0,0.4,0,0.6-0.1c0.4-0.1,0.7-0.2,1-0.4c0.1-0.1,0.3-0.2,0.4-0.4l0.1,0.5
			c0.1,0.2,0.2,0.3,0.4,0.3h1v-6.6H347V79.6L347,79.6z M337.9,75.6c-0.2-0.3-0.4-0.5-0.7-0.7c-0.3-0.1-0.6-0.2-1-0.2
			c-0.4,0-0.8,0.1-1.2,0.2c-0.3,0.1-0.6,0.4-0.9,0.7v-3.8h-1.6v9.5h1c0.1,0,0.2,0,0.2-0.1c0.1-0.1,0.1-0.1,0.1-0.2l0.1-0.4
			c0.1,0.1,0.2,0.2,0.4,0.4c0.1,0.1,0.2,0.2,0.4,0.3c0.1,0.1,0.3,0.1,0.4,0.1c0.1,0.1,0.4,0.1,0.5,0.1c0.4,0,0.8-0.1,1.2-0.2
			c0.4-0.1,0.7-0.4,0.9-0.7c0.2-0.3,0.4-0.7,0.6-1.1c0.1-0.4,0.2-0.9,0.2-1.3c0-0.5-0.1-1-0.1-1.4C338.3,76.3,338.1,75.9,337.9,75.6
			z M336.9,79.1c-0.1,0.3-0.1,0.5-0.3,0.7c-0.1,0.1-0.3,0.3-0.5,0.4c-0.2,0.1-0.4,0.1-0.7,0.1c-0.2,0-0.4-0.1-0.7-0.1
			c-0.2-0.1-0.4-0.2-0.6-0.4v-3c0.2-0.2,0.4-0.4,0.7-0.6c0.2-0.1,0.5-0.2,0.8-0.2c0.2,0,0.4,0,0.6,0.1c0.1,0.1,0.3,0.2,0.4,0.4
			c0.1,0.1,0.2,0.4,0.3,0.7c0.1,0.3,0.1,0.6,0.1,1C337,78.5,337,78.8,336.9,79.1L336.9,79.1z M339.8,71.9h1.6v9.5h-1.6V71.9z
			 M367.4,75.5c-0.2-0.2-0.4-0.4-0.7-0.5c-0.3-0.1-0.6-0.1-1-0.1c-0.4,0-0.7,0.1-1.1,0.2c-0.3,0.1-0.6,0.4-0.8,0.6V72h-1.6v9.5h1.6
			v-4.8c0.2-0.2,0.4-0.4,0.7-0.5s0.5-0.2,0.7-0.1c0.4,0,0.7,0.1,0.8,0.3c0.2,0.2,0.3,0.5,0.3,1v4.2h1.6v-4.2c0-0.4-0.1-0.7-0.1-1
			C367.7,76,367.5,75.7,367.4,75.5z M360.6,78.2c-0.1-0.1-0.3-0.2-0.5-0.3c-0.2-0.1-0.4-0.1-0.6-0.2c-0.2-0.1-0.4-0.1-0.6-0.2
			c-0.2-0.1-0.4-0.1-0.5-0.2c-0.1-0.1-0.3-0.1-0.4-0.2c-0.1-0.1-0.1-0.2-0.1-0.4c0-0.2,0.1-0.4,0.3-0.5c0.1-0.1,0.4-0.2,0.7-0.2
			c0.1,0,0.4,0,0.5,0.1c0.1,0.1,0.3,0.1,0.4,0.1c0.1,0.1,0.2,0.1,0.3,0.1c0.1,0.1,0.1,0.1,0.2,0.1c0.1,0,0.1,0,0.1-0.1
			c0.1,0,0.1-0.1,0.1-0.1l0.4-0.6c-0.2-0.2-0.6-0.4-1-0.6c-0.4-0.1-0.8-0.2-1.3-0.2c-0.4,0-0.7,0.1-1,0.1c-0.3,0.1-0.6,0.2-0.7,0.4
			c-0.2,0.1-0.4,0.4-0.4,0.7c-0.1,0.2-0.1,0.5-0.1,0.7c0,0.3,0.1,0.5,0.1,0.7s0.2,0.4,0.4,0.5c0.1,0.1,0.3,0.3,0.5,0.4
			c0.2,0.1,0.4,0.1,0.6,0.2c0.2,0.1,0.4,0.1,0.6,0.2c0.1,0.1,0.4,0.1,0.5,0.2s0.3,0.1,0.4,0.2s0.1,0.2,0.1,0.4c0,0.1,0,0.2-0.1,0.3
			c-0.1,0.1-0.1,0.1-0.2,0.2c-0.1,0.1-0.2,0.1-0.3,0.1c-0.1,0.1-0.3,0.1-0.5,0.1c-0.2,0-0.4,0-0.6-0.1c-0.1-0.1-0.3-0.1-0.4-0.1
			c-0.1-0.1-0.2-0.1-0.3-0.1c-0.1-0.1-0.1-0.1-0.3-0.1c-0.1,0-0.1,0-0.2,0.1c-0.1,0.1-0.1,0.1-0.1,0.1l-0.4,0.6
			c0.1,0.1,0.3,0.2,0.4,0.3c0.1,0.1,0.4,0.2,0.5,0.2c0.2,0.1,0.4,0.1,0.6,0.1c0.2,0.1,0.4,0.1,0.7,0.1c0.4,0,0.8-0.1,1.1-0.1
			c0.3-0.1,0.6-0.3,0.8-0.4c0.2-0.2,0.4-0.4,0.5-0.7c0.1-0.3,0.1-0.6,0.1-0.9s-0.1-0.5-0.1-0.7C360.9,78.5,360.8,78.4,360.6,78.2z
			 M354.9,75.5c-0.2-0.2-0.5-0.4-0.9-0.6s-0.7-0.2-1.1-0.2c-0.5,0-1,0.1-1.3,0.2c-0.4,0.1-0.7,0.4-1,0.7c-0.3,0.3-0.5,0.7-0.6,1
			c-0.1,0.4-0.2,0.8-0.2,1.3c0,0.6,0.1,1.1,0.2,1.5c0.1,0.4,0.4,0.8,0.7,1.1c0.3,0.3,0.7,0.5,1,0.7s0.8,0.2,1.3,0.2
			c0.2,0,0.4,0,0.7-0.1c0.2,0,0.5-0.1,0.7-0.1c0.2-0.1,0.4-0.2,0.7-0.3c0.2-0.1,0.4-0.3,0.6-0.5l-0.4-0.6c0-0.1-0.1-0.1-0.1-0.1
			c-0.1,0-0.1-0.1-0.1-0.1s-0.2,0-0.3,0.1c-0.1,0.1-0.2,0.1-0.4,0.2c-0.1,0.1-0.3,0.1-0.5,0.2c-0.2,0.1-0.4,0.1-0.7,0.1
			c-0.5,0-1-0.1-1.3-0.4c-0.3-0.3-0.5-0.8-0.5-1.5h4.2c0.1,0,0.1-0.1,0.1-0.1c0-0.1,0.1-0.1,0.1-0.2v-0.3c0-0.4-0.1-0.9-0.2-1.3
			L354.9,75.5L354.9,75.5z M351.2,77.4c0.1-0.4,0.2-0.8,0.5-1.1c0.3-0.3,0.6-0.4,1.1-0.4c0.2,0,0.4,0.1,0.6,0.1
			c0.1,0.1,0.3,0.1,0.4,0.3c0.1,0.1,0.2,0.3,0.2,0.4c0.1,0.1,0.1,0.4,0.1,0.6H351.2L351.2,77.4z M326.2,75.7h-0.7l-1-3.5h0.7
			l0.8,2.7l0.8-2.7h0.5L326.2,75.7L326.2,75.7z M328.3,72.8h-0.6v-0.6h0.6V72.8z M328.3,75.7h-0.6v-2.6h0.6V75.7z M331.2,75.7h-0.5
			c-0.1-0.1-0.1-0.3-0.1-0.5c-0.1,0.4-0.4,0.6-0.9,0.6c-0.2,0-0.4-0.1-0.6-0.2c-0.1-0.1-0.2-0.4-0.2-0.6c0-0.6,0.5-0.9,1.6-0.9h0.1
			v-0.2c0-0.3-0.1-0.4-0.5-0.4s-0.5,0.1-0.6,0.4l-0.5-0.1c0-0.2,0.1-0.4,0.3-0.5c0.2-0.1,0.4-0.2,0.8-0.2c0.2,0,0.4,0,0.5,0.1
			c0.1,0,0.2,0.1,0.3,0.1c0.1,0.1,0.1,0.1,0.1,0.2s0.1,0.2,0.1,0.4v1.2C331.2,75.3,331.2,75.5,331.2,75.7z M330.6,74.4
			c-0.7,0-1.1,0.1-1.1,0.5c0,0.1,0.1,0.2,0.1,0.3c0.1,0.1,0.2,0.1,0.4,0.1c0.2,0,0.4-0.1,0.5-0.2s0.1-0.3,0.1-0.4L330.6,74.4
			L330.6,74.4z"/>
	</g>
	<path class="st6" d="M47.4,16.5l-9.1,21.6h-5.9l-4.5-17.3c-0.3-1.1-0.5-1.5-1.3-1.9c-1.3-0.7-3.6-1.4-5.5-1.8l0.1-0.6h9.5
		c1.2,0,2.3,0.8,2.6,2.2l2.4,12.5l5.8-14.7H47.4z M70.6,31c0-5.7-7.9-6-7.8-8.6c0-0.8,0.8-1.6,2.4-1.8c0.8-0.1,3-0.2,5.5,1l1-4.6
		c-1.3-0.5-3.1-1-5.2-1c-5.5,0-9.4,2.9-9.5,7.2c0,3.1,2.8,4.9,4.9,5.9c2.2,1.1,2.9,1.7,2.9,2.7c0,1.5-1.7,2.1-3.4,2.1
		c-2.8,0-4.4-0.8-5.7-1.4l-1,4.7c1.3,0.6,3.7,1.1,6.2,1.1C66.7,38.5,70.5,35.5,70.6,31 M85.2,38.1h5.2l-4.6-21.6H81
		c-1.1,0-2,0.6-2.4,1.6l-8.4,20.1h5.9l1.2-3.2h7.2C84.5,35,85.2,38.1,85.2,38.1z M78.9,30.4l2.9-8.1l1.7,8.1H78.9z M55.4,16.5
		l-4.6,21.6h-5.6l4.6-21.6C49.8,16.5,55.4,16.5,55.4,16.5z"/>
	<g>
		<path d="M189.6,44.4l0.1,0.1C189.7,44.4,189.7,44.4,189.6,44.4z M189.7,44.3h0.1v0.2h-0.1l0.1,0.1h-0.1l-0.1-0.1v0.1h-0.1v-0.3
			H189.7L189.7,44.3z M189.6,44.8h0.1c0,0,0.1,0,0.1-0.1c0,0,0-0.1,0.1-0.1v-0.2c0,0,0-0.1-0.1-0.1c0,0-0.1,0-0.1-0.1h-0.2
			c0,0-0.1,0-0.1,0.1c-0.1,0.1-0.1,0.2-0.1,0.3c0,0,0,0.1,0.1,0.1C189.4,44.7,189.5,44.7,189.6,44.8
			C189.6,44.7,189.6,44.8,189.6,44.8 M189.6,44.1c0.1,0,0.2,0,0.3,0.1l0.1,0.1v0.3c0,0,0,0.1-0.1,0.1l-0.1,0.1h-0.2
			c0,0-0.1,0-0.1-0.1l-0.1-0.1v-0.3c0,0,0-0.1,0.1-0.1L189.6,44.1C189.5,44.1,189.6,44.1,189.6,44.1 M154.8,42.8
			c0-0.7,0.4-1.2,1.1-1.2s1.1,0.5,1.1,1.2s-0.5,1.2-1.1,1.2C155.2,44,154.8,43.4,154.8,42.8 M157.8,42.8v-1.9H157v0.5
			c-0.3-0.3-0.6-0.5-1.2-0.5c-1,0-1.9,0.8-1.9,2s0.8,2,1.9,2c0.5,0,0.9-0.2,1.2-0.5v0.5h0.8V42.8z M185.3,42.8
			c0-0.7,0.4-1.2,1.1-1.2c0.7,0,1.1,0.5,1.1,1.2S187,44,186.4,44C185.7,44,185.3,43.4,185.3,42.8 M188.3,42.8v-3.4h-0.8v2
			c-0.3-0.3-0.6-0.5-1.2-0.5c-1,0-1.9,0.8-1.9,2s0.8,2,1.9,2c0.5,0,0.9-0.2,1.2-0.5v0.5h0.8V42.8z M167.9,41.5
			c0.5,0,0.9,0.3,0.9,0.9h-1.9C167,41.9,167.3,41.5,167.9,41.5 M167.9,40.8c-1.1,0-1.9,0.8-1.9,2s0.8,2,1.9,2c0.6,0,1.1-0.1,1.5-0.5
			l-0.4-0.6c-0.3,0.3-0.7,0.4-1.1,0.4c-0.5,0-1-0.2-1.1-0.9h2.8v-0.3C169.7,41.6,169,40.8,167.9,40.8 M177.7,42.8
			c0-0.7,0.4-1.2,1.1-1.2s1.1,0.5,1.1,1.2s-0.5,1.2-1.1,1.2S177.7,43.4,177.7,42.8 M180.7,42.8v-1.9h-0.8v0.5
			c-0.3-0.3-0.6-0.5-1.2-0.5c-1,0-1.9,0.8-1.9,2s0.8,2,1.9,2c0.5,0,0.9-0.2,1.2-0.5v0.5h0.8V42.8z M173.1,42.8c0,1.1,0.8,2,2,2
			c0.6,0,0.9-0.1,1.3-0.4l-0.4-0.7c-0.3,0.2-0.6,0.3-1,0.3c-0.6,0-1.1-0.5-1.1-1.2s0.5-1.2,1.1-1.2c0.4,0,0.7,0.1,1,0.3l0.4-0.7
			c-0.4-0.3-0.8-0.4-1.3-0.4C173.9,40.8,173.1,41.6,173.1,42.8 M183.6,40.8c-0.5,0-0.8,0.2-1,0.5v-0.5h-0.8v3.7h0.8v-2.1
			c0-0.6,0.3-1,0.8-1c0.2,0,0.3,0,0.5,0.1l0.3-0.8C184,40.8,183.8,40.8,183.6,40.8 M161.8,41.2c-0.4-0.3-0.9-0.4-1.5-0.4
			c-0.9,0-1.6,0.5-1.6,1.2c0,0.6,0.5,1,1.3,1.1l0.4,0.1c0.4,0.1,0.7,0.2,0.7,0.4c0,0.3-0.3,0.5-0.9,0.5c-0.6,0-1-0.2-1.2-0.4
			l-0.4,0.6c0.4,0.3,1,0.5,1.6,0.5c1.1,0,1.7-0.5,1.7-1.2s-0.5-1-1.3-1.1l-0.4-0.1c-0.4,0-0.6-0.1-0.6-0.4c0-0.3,0.3-0.4,0.7-0.4
			c0.5,0,0.9,0.2,1.2,0.3C161.5,41.9,161.8,41.2,161.8,41.2z M172.3,40.8c-0.5,0-0.8,0.2-1,0.5v-0.5h-0.8v3.7h0.8v-2.1
			c0-0.6,0.3-1,0.8-1c0.2,0,0.3,0,0.5,0.1l0.3-0.8C172.7,40.8,172.5,40.8,172.3,40.8 M165.4,40.9h-1.3v-1.1h-0.8v1.1h-0.8v0.7h0.8
			v1.7c0,0.9,0.3,1.4,1.3,1.4c0.4,0,0.8-0.1,1-0.3l-0.2-0.7c-0.2,0.1-0.5,0.2-0.7,0.2c-0.4,0-0.5-0.3-0.5-0.6v-1.7h1.3L165.4,40.9
			L165.4,40.9L165.4,40.9z M153.3,44.6v-2.3c0-0.9-0.6-1.5-1.5-1.5c-0.5,0-1,0.1-1.3,0.7c-0.3-0.4-0.7-0.7-1.2-0.7
			c-0.4,0-0.8,0.1-1.1,0.6v-0.5h-0.9v3.7h0.8v-2.1c0-0.6,0.4-1,0.9-1s0.8,0.4,0.8,1v2.1h0.8v-2.1c0-0.6,0.4-1,0.9-1
			c0.6,0,0.8,0.4,0.8,1v2.1H153.3L153.3,44.6z"/>
		<path class="st4" d="M190,32.2v-0.5h-0.1l-0.2,0.4l-0.2-0.4h-0.1v0.5h0.1v-0.4l0.2,0.4h0.1l0.2-0.4V32.2z M189.1,32.2v-0.5h0.2
			v-0.1h-0.5v0.1h0.2v0.5H189.1z M173.9,34.6h-12.3V12.5h12.3V34.6z"/>
		<path class="st1" d="M162.4,23.5c0-4.5,2.1-8.5,5.4-11.1c-2.5-2-5.5-3-8.7-3c-7.8,0-14.1,6.3-14.1,14.1s6.3,14.1,14.1,14.1
			c3.2,0,6.2-1.1,8.7-3C164.5,32,162.4,28,162.4,23.5"/>
		<path class="st7" d="M190.5,23.5c0,7.8-6.3,14.1-14.1,14.1c-3.2,0-6.2-1.1-8.7-3c3.3-2.6,5.4-6.6,5.4-11.1s-2.1-8.5-5.4-11.1
			c2.5-2,5.5-3,8.7-3C184.2,9.4,190.5,15.7,190.5,23.5"/>
	</g>
	<path d="M184.1,65.2c-0.5-0.3-1.1-0.5-1.6-0.7c-0.7-0.1-1.4-0.2-2.1-0.2h-4.5V78h2.5v-5.7h1.8c0.6,0,1.4-0.1,2-0.2
		c0.6-0.1,1.2-0.3,1.7-0.6c0.5-0.3,0.9-0.7,1.2-1.3c0.3-0.5,0.4-1.3,0.4-1.9s-0.1-1.3-0.3-1.8C184.9,66,184.5,65.5,184.1,65.2
		L184.1,65.2z M182.8,69.3l-0.6,0.6l-1,0.3c-0.4,0.1-0.7,0.1-1.2,0.1h-1.7v-4.1h1.8c0.3,0,0.7,0,1.1,0.1c0.3,0,0.6,0.1,1,0.3
		c0.6,0.3,1,0.9,1,1.6L182.8,69.3L182.8,69.3z M193.6,69.7c-0.3-0.4-0.7-0.7-1.3-1c-0.6-0.2-1.4-0.3-2-0.3c-0.7,0-1.4,0.1-2.1,0.3
		c-0.6,0.2-1.3,0.6-1.8,1.1l1.2,1.4c0.3-0.3,0.7-0.5,1.1-0.7c0.4-0.2,1-0.3,1.4-0.3c0.5,0,1.1,0.1,1.5,0.4c0.4,0.3,0.6,0.7,0.6,1.3
		v0.2c-0.7,0-1.5,0-2.2,0.1s-1.4,0.2-2,0.4c-0.5,0.2-1.1,0.5-1.5,1c-0.4,0.4-0.6,1.1-0.6,1.7c0,0.4,0.1,1,0.3,1.4
		c0.2,0.3,0.5,0.6,0.9,0.9c0.3,0.2,0.7,0.4,1.1,0.5c0.4,0.1,0.7,0.1,1.2,0.1c0.6,0,1.2-0.1,1.7-0.4c0.4-0.2,0.9-0.5,1.1-1.1h0.1v1.2
		h2.1v-5.7c0-0.4-0.1-1-0.2-1.4C194,70.4,193.8,70,193.6,69.7z M192.2,74.5c-0.1,1.2-1.3,2-2.5,1.9c-0.2,0-0.4,0-0.5-0.1
		c-0.2,0-0.3-0.1-0.5-0.2c-0.1-0.1-0.3-0.2-0.4-0.3c-0.1-0.2-0.1-0.3-0.1-0.5c0-0.3,0.1-0.6,0.3-0.9c0.2-0.2,0.5-0.3,0.9-0.4
		c0.3-0.1,0.7-0.2,1.2-0.2h1.7C192.2,73.7,192.2,74.5,192.2,74.5L192.2,74.5z M202.6,68.6h2.5l-4.4,11.3c-0.1,0.4-0.3,0.7-0.5,1.2
		c-0.2,0.3-0.4,0.6-0.7,0.9c-0.3,0.2-0.6,0.4-1,0.5s-0.9,0.2-1.3,0.2h-0.6c-0.2,0-0.4-0.1-0.6-0.1l0.2-2c0.1,0,0.3,0.1,0.4,0.1h0.4
		c0.2,0,0.4,0,0.6-0.1c0.2-0.1,0.3-0.1,0.4-0.3c0.1-0.1,0.2-0.3,0.3-0.4l0.3-0.6l0.4-1.2l-3.9-9.4h2.6l2.6,6.7
		C200.2,75.3,202.6,68.6,202.6,68.6z M229.4,56.6h-15.1c-3.4,0-6.3,2.8-6.3,6.3v15c0,3.4,2.8,6.3,6.3,6.3h15.1
		c3.4,0,6.3-2.8,6.3-6.3v-15C235.7,59.3,233,56.6,229.4,56.6z M219.8,63.3l0.7-0.1c1.2-0.1,2.3,0,3.5,0.2c2.2,0.3,4.3,1.8,5.2,3.9
		l-1.6,0.6c-1.2-2.8-4.5-3.1-6-3.1v8.3h-1.8V63.3L219.8,63.3z M214.2,64.5c0-0.7,0.6-1.4,1.4-1.4c0.7,0,1.4,0.6,1.4,1.4
		c0,0.8-0.6,1.4-1.4,1.4C214.7,65.7,214.2,65.2,214.2,64.5z M229.7,72c-0.1,0.5-0.2,1.1-0.4,1.6c-1.2,2.9-4.1,4.3-8.4,4.3h-6.3v-9.8
		h1.8v8.1h4.6c3.5,0,5.9-1.1,6.7-3.2c0.1-0.3,0.2-0.6,0.2-1h-1.5l2.6-3.2l2.6,3.2H229.7L229.7,72z"/>
	<g transform="translate(936.898 -21.779)">
		<path class="st8" d="M-666.2,40.4c-0.2,0-0.4,0.2-0.4,0.4l-2.6,16.2c0,0.2,0.1,0.4,0.3,0.5c0,0,0,0,0.1,0h3c0.2,0,0.4-0.2,0.4-0.4
			l0.8-4.8c0-0.2,0.2-0.4,0.4-0.4h2.8c3.2,0,5.9-2.3,6.4-5.5c0.5-3.2-2-6-5.6-6H-666.2z M-663.2,44.1h2.2c1.8,0,2.4,1.1,2.2,2.3
			c-0.2,1.2-1.1,2.1-2.9,2.1h-2.2L-663.2,44.1z M-648.7,45.2c-0.8,0-1.6,0.2-2.6,0.6c-2.3,0.9-3.4,2.9-3.8,4.3c0,0-1.5,4.3,1.9,6.7
			c0,0,3.1,2.3,6.6-0.1l-0.1,0.4c0,0.2,0.1,0.4,0.3,0.5c0,0,0,0,0.1,0h2.9c0.2,0,0.4-0.2,0.4-0.4l1.7-11.1c0-0.2-0.1-0.4-0.3-0.5
			c0,0,0,0-0.1,0h-2.9c-0.2,0-0.4,0.2-0.4,0.4l-0.1,0.6C-645.2,46.5-646.4,45.2-648.7,45.2L-648.7,45.2z M-648.6,48.7
			c0.3,0,0.6,0,0.9,0.1c1.2,0.4,1.9,1.6,1.7,2.9c-0.3,1.6-1.6,2.8-3.2,2.8c-0.3,0-0.6,0-0.9-0.1c-1.2-0.4-1.9-1.6-1.7-2.9
			C-651.6,49.8-650.3,48.7-648.6,48.7L-648.6,48.7z"/>
		<path class="st9" d="M-624.8,40.4c-0.2,0-0.4,0.2-0.4,0.4l-2.6,16.2c0,0.2,0.1,0.4,0.3,0.5c0,0,0,0,0.1,0h3c0.2,0,0.4-0.2,0.4-0.4
			l0.8-4.8c0-0.2,0.2-0.4,0.4-0.4h2.8c3.2,0,5.9-2.3,6.4-5.5c0.5-3.2-2-6-5.6-6H-624.8z M-621.8,44.1h2.2c1.8,0,2.4,1.1,2.2,2.3
			c-0.2,1.2-1.1,2.1-2.9,2.1h-2.2L-621.8,44.1z M-607.3,45.2c-0.8,0-1.6,0.2-2.6,0.6c-2.3,0.9-3.4,2.9-3.8,4.3c0,0-1.5,4.3,1.9,6.7
			c0,0,3.1,2.3,6.6-0.1l-0.1,0.4c0,0.2,0.1,0.4,0.3,0.5c0,0,0,0,0.1,0h2.9c0.2,0,0.4-0.2,0.4-0.4l1.7-11.1c0-0.2-0.1-0.4-0.3-0.5
			c0,0,0,0-0.1,0h-2.9c-0.2,0-0.4,0.2-0.4,0.4l-0.1,0.6C-603.8,46.5-605,45.2-607.3,45.2L-607.3,45.2z M-607.2,48.7
			c0.3,0,0.6,0,0.9,0.1c1.2,0.4,1.9,1.6,1.7,2.9c-0.3,1.6-1.6,2.8-3.2,2.8c-0.3,0-0.6,0-0.9-0.1c-1.2-0.4-1.9-1.6-1.7-2.9
			C-610.2,49.8-608.9,48.7-607.2,48.7L-607.2,48.7z"/>
		<path class="st8" d="M-640,45.5c-0.2,0-0.4,0.2-0.3,0.4l3.2,9.8l-2.8,4.6c-0.1,0.2,0,0.5,0.3,0.5h3.4c0.2,0,0.4-0.1,0.5-0.3
			l8.8-14.6c0.1-0.2,0-0.5-0.3-0.5h-3.4c-0.2,0-0.4,0.1-0.5,0.3l-3.5,5.8l-1.8-5.8c-0.1-0.2-0.2-0.3-0.4-0.3L-640,45.5z"/>
		<path class="st9" d="M-596.7,40.4c-0.2,0-0.4,0.2-0.4,0.4l-2.6,16.2c0,0.2,0.1,0.4,0.3,0.5c0,0,0,0,0.1,0h3c0.2,0,0.4-0.2,0.4-0.4
			l2.6-16.2c0-0.2-0.1-0.4-0.3-0.5c0,0,0,0-0.1,0L-596.7,40.4z"/>
		<path class="st10" d="M-691.4,40.4c-0.4,0-0.7,0.3-0.8,0.7l-1.3,8.5c0.1-0.4,0.4-0.7,0.8-0.7h3.9c4,0,7.3-2.9,7.9-6.8
			c0-0.3,0.1-0.6,0.1-0.9c-1-0.5-2.2-0.8-3.5-0.8H-691.4z"/>
		<path class="st9" d="M-680.8,41.3c0,0.3,0,0.6-0.1,0.9c-0.6,3.9-4,6.8-7.9,6.8h-3.9c-0.4,0-0.7,0.3-0.8,0.7l-1.2,7.8l-0.8,4.9
			c-0.1,0.4,0.2,0.7,0.6,0.8c0,0,0.1,0,0.1,0h4.3c0.4,0,0.7-0.3,0.8-0.7l1.1-7.1c0.1-0.4,0.4-0.7,0.8-0.7h2.5c4,0,7.3-2.9,7.9-6.8
			C-677,45.1-678.4,42.5-680.8,41.3L-680.8,41.3z"/>
		<path class="st8" d="M-696.3,34.8c-0.4,0-0.7,0.3-0.8,0.7l-3.4,21.3c-0.1,0.4,0.2,0.8,0.7,0.8h5l1.2-7.8l1.3-8.5
			c0.1-0.4,0.4-0.7,0.8-0.7h7.1c1.3,0,2.5,0.3,3.5,0.8c0.1-3.6-2.9-6.5-6.9-6.5H-696.3z"/>
	</g>
</g>
</svg>
